G04 #@! TF.GenerationSoftware,KiCad,Pcbnew,(5.1.5)-3*
G04 #@! TF.CreationDate,2020-05-14T20:53:58+10:00*
G04 #@! TF.ProjectId,V9203_Devkit,56393230-335f-4446-9576-6b69742e6b69,rev?*
G04 #@! TF.SameCoordinates,Original*
G04 #@! TF.FileFunction,Legend,Top*
G04 #@! TF.FilePolarity,Positive*
%FSLAX46Y46*%
G04 Gerber Fmt 4.6, Leading zero omitted, Abs format (unit mm)*
G04 Created by KiCad (PCBNEW (5.1.5)-3) date 2020-05-14 20:53:58*
%MOMM*%
%LPD*%
G04 APERTURE LIST*
%ADD10C,0.200000*%
%ADD11C,0.120000*%
%ADD12C,0.254000*%
%ADD13C,0.127000*%
%ADD14C,0.500000*%
%ADD15C,0.150000*%
G04 APERTURE END LIST*
D10*
X140703695Y-69011469D02*
X140665600Y-69049564D01*
X140551314Y-69087659D01*
X140475124Y-69087659D01*
X140360838Y-69049564D01*
X140284648Y-68973374D01*
X140246552Y-68897183D01*
X140208457Y-68744802D01*
X140208457Y-68630516D01*
X140246552Y-68478135D01*
X140284648Y-68401945D01*
X140360838Y-68325755D01*
X140475124Y-68287659D01*
X140551314Y-68287659D01*
X140665600Y-68325755D01*
X140703695Y-68363850D01*
X141008457Y-69049564D02*
X141122743Y-69087659D01*
X141313219Y-69087659D01*
X141389409Y-69049564D01*
X141427505Y-69011469D01*
X141465600Y-68935278D01*
X141465600Y-68859088D01*
X141427505Y-68782897D01*
X141389409Y-68744802D01*
X141313219Y-68706707D01*
X141160838Y-68668612D01*
X141084648Y-68630516D01*
X141046552Y-68592421D01*
X141008457Y-68516231D01*
X141008457Y-68440040D01*
X141046552Y-68363850D01*
X141084648Y-68325755D01*
X141160838Y-68287659D01*
X141351314Y-68287659D01*
X141465600Y-68325755D01*
X150451048Y-69049564D02*
X150565333Y-69087659D01*
X150755809Y-69087659D01*
X150832000Y-69049564D01*
X150870095Y-69011469D01*
X150908190Y-68935278D01*
X150908190Y-68859088D01*
X150870095Y-68782897D01*
X150832000Y-68744802D01*
X150755809Y-68706707D01*
X150603429Y-68668612D01*
X150527238Y-68630516D01*
X150489143Y-68592421D01*
X150451048Y-68516231D01*
X150451048Y-68440040D01*
X150489143Y-68363850D01*
X150527238Y-68325755D01*
X150603429Y-68287659D01*
X150793905Y-68287659D01*
X150908190Y-68325755D01*
X151708190Y-69011469D02*
X151670095Y-69049564D01*
X151555809Y-69087659D01*
X151479619Y-69087659D01*
X151365333Y-69049564D01*
X151289143Y-68973374D01*
X151251048Y-68897183D01*
X151212952Y-68744802D01*
X151212952Y-68630516D01*
X151251048Y-68478135D01*
X151289143Y-68401945D01*
X151365333Y-68325755D01*
X151479619Y-68287659D01*
X151555809Y-68287659D01*
X151670095Y-68325755D01*
X151708190Y-68363850D01*
X152432000Y-69087659D02*
X152051048Y-69087659D01*
X152051048Y-68287659D01*
X153048200Y-69049564D02*
X153162486Y-69087659D01*
X153352962Y-69087659D01*
X153429152Y-69049564D01*
X153467248Y-69011469D01*
X153505343Y-68935278D01*
X153505343Y-68859088D01*
X153467248Y-68782897D01*
X153429152Y-68744802D01*
X153352962Y-68706707D01*
X153200581Y-68668612D01*
X153124390Y-68630516D01*
X153086295Y-68592421D01*
X153048200Y-68516231D01*
X153048200Y-68440040D01*
X153086295Y-68363850D01*
X153124390Y-68325755D01*
X153200581Y-68287659D01*
X153391057Y-68287659D01*
X153505343Y-68325755D01*
X153848200Y-69087659D02*
X153848200Y-68287659D01*
X154038676Y-68287659D01*
X154152962Y-68325755D01*
X154229152Y-68401945D01*
X154267248Y-68478135D01*
X154305343Y-68630516D01*
X154305343Y-68744802D01*
X154267248Y-68897183D01*
X154229152Y-68973374D01*
X154152962Y-69049564D01*
X154038676Y-69087659D01*
X153848200Y-69087659D01*
X154610105Y-68859088D02*
X154991057Y-68859088D01*
X154533914Y-69087659D02*
X154800581Y-68287659D01*
X155067248Y-69087659D01*
X129642162Y-68287659D02*
X129908829Y-69087659D01*
X130175495Y-68287659D01*
X130442162Y-68287659D02*
X130442162Y-68935278D01*
X130480257Y-69011469D01*
X130518352Y-69049564D01*
X130594543Y-69087659D01*
X130746924Y-69087659D01*
X130823114Y-69049564D01*
X130861209Y-69011469D01*
X130899305Y-68935278D01*
X130899305Y-68287659D01*
X131242162Y-69049564D02*
X131356448Y-69087659D01*
X131546924Y-69087659D01*
X131623114Y-69049564D01*
X131661209Y-69011469D01*
X131699305Y-68935278D01*
X131699305Y-68859088D01*
X131661209Y-68782897D01*
X131623114Y-68744802D01*
X131546924Y-68706707D01*
X131394543Y-68668612D01*
X131318352Y-68630516D01*
X131280257Y-68592421D01*
X131242162Y-68516231D01*
X131242162Y-68440040D01*
X131280257Y-68363850D01*
X131318352Y-68325755D01*
X131394543Y-68287659D01*
X131585019Y-68287659D01*
X131699305Y-68325755D01*
X132308829Y-68668612D02*
X132423114Y-68706707D01*
X132461209Y-68744802D01*
X132499305Y-68820993D01*
X132499305Y-68935278D01*
X132461209Y-69011469D01*
X132423114Y-69049564D01*
X132346924Y-69087659D01*
X132042162Y-69087659D01*
X132042162Y-68287659D01*
X132308829Y-68287659D01*
X132385019Y-68325755D01*
X132423114Y-68363850D01*
X132461209Y-68440040D01*
X132461209Y-68516231D01*
X132423114Y-68592421D01*
X132385019Y-68630516D01*
X132308829Y-68668612D01*
X132042162Y-68668612D01*
X122777705Y-84100000D02*
X122701514Y-84061904D01*
X122587229Y-84061904D01*
X122472943Y-84100000D01*
X122396752Y-84176190D01*
X122358657Y-84252380D01*
X122320562Y-84404761D01*
X122320562Y-84519047D01*
X122358657Y-84671428D01*
X122396752Y-84747619D01*
X122472943Y-84823809D01*
X122587229Y-84861904D01*
X122663419Y-84861904D01*
X122777705Y-84823809D01*
X122815800Y-84785714D01*
X122815800Y-84519047D01*
X122663419Y-84519047D01*
X123158657Y-84861904D02*
X123158657Y-84061904D01*
X123615800Y-84861904D01*
X123615800Y-84061904D01*
X123996752Y-84861904D02*
X123996752Y-84061904D01*
X124187229Y-84061904D01*
X124301514Y-84100000D01*
X124377705Y-84176190D01*
X124415800Y-84252380D01*
X124453895Y-84404761D01*
X124453895Y-84519047D01*
X124415800Y-84671428D01*
X124377705Y-84747619D01*
X124301514Y-84823809D01*
X124187229Y-84861904D01*
X123996752Y-84861904D01*
X117443752Y-84061904D02*
X117938990Y-84061904D01*
X117672324Y-84366666D01*
X117786609Y-84366666D01*
X117862800Y-84404761D01*
X117900895Y-84442857D01*
X117938990Y-84519047D01*
X117938990Y-84709523D01*
X117900895Y-84785714D01*
X117862800Y-84823809D01*
X117786609Y-84861904D01*
X117558038Y-84861904D01*
X117481848Y-84823809D01*
X117443752Y-84785714D01*
X118167562Y-84061904D02*
X118434229Y-84861904D01*
X118700895Y-84061904D01*
X118891371Y-84061904D02*
X119386609Y-84061904D01*
X119119943Y-84366666D01*
X119234229Y-84366666D01*
X119310419Y-84404761D01*
X119348514Y-84442857D01*
X119386609Y-84519047D01*
X119386609Y-84709523D01*
X119348514Y-84785714D01*
X119310419Y-84823809D01*
X119234229Y-84861904D01*
X119005657Y-84861904D01*
X118929467Y-84823809D01*
X118891371Y-84785714D01*
X141065648Y-84785714D02*
X141027552Y-84823809D01*
X140913267Y-84861904D01*
X140837076Y-84861904D01*
X140722790Y-84823809D01*
X140646600Y-84747619D01*
X140608505Y-84671428D01*
X140570409Y-84519047D01*
X140570409Y-84404761D01*
X140608505Y-84252380D01*
X140646600Y-84176190D01*
X140722790Y-84100000D01*
X140837076Y-84061904D01*
X140913267Y-84061904D01*
X141027552Y-84100000D01*
X141065648Y-84138095D01*
X141408505Y-84861904D02*
X141408505Y-84061904D01*
X141865648Y-84861904D02*
X141522790Y-84404761D01*
X141865648Y-84061904D02*
X141408505Y-84519047D01*
X143380952Y-84823809D02*
X143495238Y-84861904D01*
X143685714Y-84861904D01*
X143761904Y-84823809D01*
X143800000Y-84785714D01*
X143838095Y-84709523D01*
X143838095Y-84633333D01*
X143800000Y-84557142D01*
X143761904Y-84519047D01*
X143685714Y-84480952D01*
X143533333Y-84442857D01*
X143457142Y-84404761D01*
X143419047Y-84366666D01*
X143380952Y-84290476D01*
X143380952Y-84214285D01*
X143419047Y-84138095D01*
X143457142Y-84100000D01*
X143533333Y-84061904D01*
X143723809Y-84061904D01*
X143838095Y-84100000D01*
X144180952Y-84861904D02*
X144180952Y-84061904D01*
X145552380Y-84823809D02*
X145666666Y-84861904D01*
X145857142Y-84861904D01*
X145933333Y-84823809D01*
X145971428Y-84785714D01*
X146009523Y-84709523D01*
X146009523Y-84633333D01*
X145971428Y-84557142D01*
X145933333Y-84519047D01*
X145857142Y-84480952D01*
X145704761Y-84442857D01*
X145628571Y-84404761D01*
X145590476Y-84366666D01*
X145552380Y-84290476D01*
X145552380Y-84214285D01*
X145590476Y-84138095D01*
X145628571Y-84100000D01*
X145704761Y-84061904D01*
X145895238Y-84061904D01*
X146009523Y-84100000D01*
X146504761Y-84061904D02*
X146657142Y-84061904D01*
X146733333Y-84100000D01*
X146809523Y-84176190D01*
X146847619Y-84328571D01*
X146847619Y-84595238D01*
X146809523Y-84747619D01*
X146733333Y-84823809D01*
X146657142Y-84861904D01*
X146504761Y-84861904D01*
X146428571Y-84823809D01*
X146352380Y-84747619D01*
X146314285Y-84595238D01*
X146314285Y-84328571D01*
X146352380Y-84176190D01*
X146428571Y-84100000D01*
X146504761Y-84061904D01*
D11*
X146531000Y-49894136D02*
X146831000Y-50318400D01*
X147131000Y-49894136D02*
X146531000Y-49894136D01*
X146831000Y-50318400D02*
X147131000Y-49894136D01*
X150441000Y-59078400D02*
X151141000Y-59078400D01*
X150441000Y-58778400D02*
X150441000Y-59078400D01*
X151141000Y-58778400D02*
X150441000Y-58778400D01*
X151141000Y-59078400D02*
X151141000Y-58778400D01*
X150441000Y-56578400D02*
X151141000Y-56578400D01*
X150441000Y-56278400D02*
X150441000Y-56578400D01*
X151141000Y-56278400D02*
X150441000Y-56278400D01*
X151141000Y-56578400D02*
X151141000Y-56278400D01*
X150441000Y-54078400D02*
X151141000Y-54078400D01*
X150441000Y-53778400D02*
X150441000Y-54078400D01*
X151141000Y-53778400D02*
X150441000Y-53778400D01*
X151141000Y-54078400D02*
X151141000Y-53778400D01*
X150441000Y-51578400D02*
X151141000Y-51578400D01*
X150441000Y-51278400D02*
X150441000Y-51578400D01*
X151141000Y-51278400D02*
X150441000Y-51278400D01*
X151141000Y-51578400D02*
X151141000Y-51278400D01*
X159821000Y-49598400D02*
X151141000Y-49598400D01*
X159821000Y-60758400D02*
X159821000Y-49598400D01*
X151141000Y-60758400D02*
X159821000Y-60758400D01*
X151141000Y-49598400D02*
X151141000Y-60758400D01*
X120707000Y-44162500D02*
X121207000Y-44162500D01*
X120707000Y-44162500D02*
X120707000Y-44162500D01*
X121207000Y-44162500D02*
X120707000Y-44162500D01*
X121207000Y-44162500D02*
X121207000Y-44162500D01*
X120707000Y-44862500D02*
X121207000Y-44862500D01*
X120707000Y-44862500D02*
X120707000Y-44862500D01*
X121207000Y-44862500D02*
X120707000Y-44862500D01*
X121207000Y-44862500D02*
X121207000Y-44862500D01*
X121207000Y-45362500D02*
X121207000Y-45362500D01*
X121207000Y-44162500D02*
X121207000Y-45362500D01*
X121207000Y-44162500D02*
X121207000Y-44162500D01*
X121207000Y-45362500D02*
X121207000Y-44162500D01*
X120707000Y-45362500D02*
X121607000Y-45362500D01*
X120707000Y-43012500D02*
X120707000Y-45362500D01*
X128707000Y-44162500D02*
X128207000Y-44162500D01*
X128707000Y-44162500D02*
X128707000Y-44162500D01*
X128207000Y-44162500D02*
X128707000Y-44162500D01*
X128207000Y-44162500D02*
X128207000Y-44162500D01*
X128707000Y-44862500D02*
X128207000Y-44862500D01*
X128707000Y-44862500D02*
X128707000Y-44862500D01*
X128207000Y-44862500D02*
X128707000Y-44862500D01*
X128207000Y-44862500D02*
X128207000Y-44862500D01*
X128207000Y-45362500D02*
X128207000Y-45362500D01*
X128207000Y-44162500D02*
X128207000Y-45362500D01*
X128207000Y-44162500D02*
X128207000Y-44162500D01*
X128207000Y-45362500D02*
X128207000Y-44162500D01*
X128707000Y-45362500D02*
X127807000Y-45362500D01*
X128707000Y-43012500D02*
X128707000Y-45362500D01*
X127607000Y-41112500D02*
X121807000Y-41112500D01*
X128457000Y-45937500D02*
G75*
G03X128457000Y-45937500I-250000J0D01*
G01*
X137678000Y-44162500D02*
X138178000Y-44162500D01*
X137678000Y-44162500D02*
X137678000Y-44162500D01*
X138178000Y-44162500D02*
X137678000Y-44162500D01*
X138178000Y-44162500D02*
X138178000Y-44162500D01*
X137678000Y-44862500D02*
X138178000Y-44862500D01*
X137678000Y-44862500D02*
X137678000Y-44862500D01*
X138178000Y-44862500D02*
X137678000Y-44862500D01*
X138178000Y-44862500D02*
X138178000Y-44862500D01*
X138178000Y-45362500D02*
X138178000Y-45362500D01*
X138178000Y-44162500D02*
X138178000Y-45362500D01*
X138178000Y-44162500D02*
X138178000Y-44162500D01*
X138178000Y-45362500D02*
X138178000Y-44162500D01*
X137678000Y-45362500D02*
X138578000Y-45362500D01*
X137678000Y-43012500D02*
X137678000Y-45362500D01*
X148678000Y-44162500D02*
X148178000Y-44162500D01*
X148678000Y-44162500D02*
X148678000Y-44162500D01*
X148178000Y-44162500D02*
X148678000Y-44162500D01*
X148178000Y-44162500D02*
X148178000Y-44162500D01*
X148678000Y-44862500D02*
X148178000Y-44862500D01*
X148678000Y-44862500D02*
X148678000Y-44862500D01*
X148178000Y-44862500D02*
X148678000Y-44862500D01*
X148178000Y-44862500D02*
X148178000Y-44862500D01*
X148178000Y-45362500D02*
X148178000Y-45362500D01*
X148178000Y-44162500D02*
X148178000Y-45362500D01*
X148178000Y-44162500D02*
X148178000Y-44162500D01*
X148178000Y-45362500D02*
X148178000Y-44162500D01*
X148678000Y-45362500D02*
X147778000Y-45362500D01*
X148678000Y-43012500D02*
X148678000Y-45362500D01*
X147578000Y-41112500D02*
X138778000Y-41112500D01*
X148428000Y-45937500D02*
G75*
G03X148428000Y-45937500I-250000J0D01*
G01*
X138671117Y-50147237D02*
X138317563Y-49793683D01*
X137652883Y-50458363D02*
X138006437Y-50811917D01*
X124832000Y-62321600D02*
X125332000Y-62321600D01*
X125332000Y-61261600D02*
X124832000Y-61261600D01*
X137960457Y-60756990D02*
X138314010Y-61110543D01*
X139063543Y-60361010D02*
X138709990Y-60007457D01*
X127524000Y-64861600D02*
X128024000Y-64861600D01*
X128024000Y-63801600D02*
X127524000Y-63801600D01*
X123822000Y-59991600D02*
X123322000Y-59991600D01*
X123322000Y-61051600D02*
X123822000Y-61051600D01*
X121951000Y-59832400D02*
X122451000Y-59832400D01*
X122451000Y-58772400D02*
X121951000Y-58772400D01*
X126703000Y-62531600D02*
X126203000Y-62531600D01*
X126203000Y-63591600D02*
X126703000Y-63591600D01*
X142983000Y-64166400D02*
X142983000Y-63666400D01*
X142043000Y-63666400D02*
X142043000Y-64166400D01*
X138132000Y-63666400D02*
X138132000Y-64166400D01*
X139072000Y-64166400D02*
X139072000Y-63666400D01*
X137192000Y-64124400D02*
X137192000Y-63624400D01*
X136252000Y-63624400D02*
X136252000Y-64124400D01*
X140062000Y-63666400D02*
X140062000Y-64166400D01*
X141002000Y-64166400D02*
X141002000Y-63666400D01*
X139251000Y-61617200D02*
X138751000Y-61617200D01*
X138751000Y-62677200D02*
X139251000Y-62677200D01*
X136835000Y-62677200D02*
X137335000Y-62677200D01*
X137335000Y-61617200D02*
X136835000Y-61617200D01*
X143112000Y-61617200D02*
X142612000Y-61617200D01*
X142612000Y-62677200D02*
X143112000Y-62677200D01*
X141181000Y-61617200D02*
X140681000Y-61617200D01*
X140681000Y-62677200D02*
X141181000Y-62677200D01*
X126261000Y-48748800D02*
X126761000Y-48748800D01*
X126761000Y-47808800D02*
X126261000Y-47808800D01*
X142948563Y-60776717D02*
X143302117Y-60423163D01*
X142637437Y-59758483D02*
X142283883Y-60112037D01*
X139954883Y-52557063D02*
X140308437Y-52910617D01*
X140973117Y-52245937D02*
X140619563Y-51892383D01*
X122620000Y-48748800D02*
X123120000Y-48748800D01*
X123120000Y-47808800D02*
X122620000Y-47808800D01*
X124162000Y-48647200D02*
X124162000Y-49147200D01*
X125102000Y-49147200D02*
X125102000Y-48647200D01*
X123547000Y-69808400D02*
X122847000Y-69808400D01*
X122847000Y-68608400D02*
X123547000Y-68608400D01*
X148971000Y-83333900D02*
X148271000Y-83333900D01*
X148271000Y-82133900D02*
X148971000Y-82133900D01*
X148869000Y-71464000D02*
X147089000Y-71464000D01*
X147089000Y-68924000D02*
X148869000Y-68924000D01*
X147089000Y-68924000D02*
X147089000Y-71464000D01*
X148869000Y-71464000D02*
X148869000Y-68924000D01*
X126660000Y-49018800D02*
X126160000Y-49018800D01*
X126160000Y-50078800D02*
X126660000Y-50078800D01*
X124389000Y-51450400D02*
X124889000Y-51450400D01*
X124889000Y-50390400D02*
X124389000Y-50390400D01*
X122509000Y-50129600D02*
X123009000Y-50129600D01*
X123009000Y-49069600D02*
X122509000Y-49069600D01*
X121804000Y-65189400D02*
X120804000Y-65189400D01*
X120804000Y-63829400D02*
X121804000Y-63829400D01*
X120825000Y-66051900D02*
X121825000Y-66051900D01*
X121825000Y-67411900D02*
X120825000Y-67411900D01*
X116220000Y-66104900D02*
X116220000Y-67104900D01*
X116220000Y-67104900D02*
X118320000Y-67104900D01*
X116220000Y-66104900D02*
X118320000Y-66104900D01*
X116156000Y-64072900D02*
X118256000Y-64072900D01*
X116156000Y-65072900D02*
X118256000Y-65072900D01*
X116156000Y-64072900D02*
X116156000Y-65072900D01*
X147446000Y-73444400D02*
X146446000Y-73444400D01*
X146446000Y-72084400D02*
X147446000Y-72084400D01*
X144005295Y-57339829D02*
X142520371Y-55854905D01*
X142520371Y-55854905D02*
X139515167Y-58860109D01*
X144005295Y-57339829D02*
X141000091Y-60345033D01*
X139687629Y-47244305D02*
X138202705Y-48729229D01*
X138202705Y-48729229D02*
X141207909Y-51734433D01*
X139687629Y-47244305D02*
X142692833Y-50249509D01*
X122827000Y-57594000D02*
X122827000Y-53594000D01*
X119527000Y-57594000D02*
X122827000Y-57594000D01*
D12*
X152241000Y-69918400D02*
X152241000Y-71018400D01*
X152241000Y-81018400D02*
X152241000Y-82118400D01*
X159941000Y-69918400D02*
X159941000Y-72618400D01*
X159941000Y-79418400D02*
X159941000Y-82118400D01*
X152241000Y-69918400D02*
X150741000Y-69918400D01*
X150741000Y-69918400D02*
X150741000Y-71018400D01*
X150741000Y-71018400D02*
X152241000Y-71018400D01*
X152241000Y-71018400D02*
X152241000Y-81018400D01*
X152241000Y-81018400D02*
X150741000Y-81018400D01*
X150741000Y-81018400D02*
X150741000Y-82118400D01*
X150741000Y-82118400D02*
X152241000Y-82118400D01*
X152241000Y-69918400D02*
X156206000Y-69918400D01*
X152241000Y-82118400D02*
X156206000Y-82118400D01*
X159941000Y-72618400D02*
X158941000Y-72618400D01*
X158941000Y-72618400D02*
X158941000Y-79418400D01*
X158941000Y-79418400D02*
X159941000Y-79418400D01*
D11*
X118227000Y-81653400D02*
X112827000Y-81653400D01*
X118227000Y-78353400D02*
X112827000Y-78353400D01*
X118227000Y-81653400D02*
X118227000Y-78353400D01*
X118227000Y-77398900D02*
X118227000Y-74098900D01*
X118227000Y-74098900D02*
X112827000Y-74098900D01*
X118227000Y-77398900D02*
X112827000Y-77398900D01*
X118227000Y-73207900D02*
X112827000Y-73207900D01*
X118227000Y-69907900D02*
X112827000Y-69907900D01*
X118227000Y-73207900D02*
X118227000Y-69907900D01*
X141661000Y-68589400D02*
X145561000Y-68589400D01*
X141661000Y-70589400D02*
X145561000Y-70589400D01*
X141661000Y-68589400D02*
X141661000Y-70589400D01*
X141937000Y-72264400D02*
X144037000Y-72264400D01*
X141937000Y-73264400D02*
X144037000Y-73264400D01*
X141937000Y-72264400D02*
X141937000Y-73264400D01*
X147215000Y-80938400D02*
X147215000Y-76358400D01*
X146455000Y-81698400D02*
X147215000Y-80938400D01*
X141875000Y-80938400D02*
X142635000Y-81698400D01*
X141875000Y-76358400D02*
X141875000Y-80938400D01*
X142635000Y-81698400D02*
X143425000Y-81698400D01*
X146455000Y-81698400D02*
X145665000Y-81698400D01*
X141875000Y-76358400D02*
X143425000Y-76358400D01*
X147215000Y-76358400D02*
X145665000Y-76358400D01*
X119273000Y-79244400D02*
X119273000Y-71624400D01*
X120033000Y-80004400D02*
X119273000Y-79244400D01*
X127653000Y-79244400D02*
X126893000Y-80004400D01*
X127653000Y-71624400D02*
X127653000Y-79244400D01*
X126893000Y-80004400D02*
X124973000Y-80004400D01*
X120033000Y-80004400D02*
X121953000Y-80004400D01*
X119273000Y-71624400D02*
X121953000Y-71624400D01*
X127653000Y-71624400D02*
X124973000Y-71624400D01*
D13*
X128305000Y-80817350D02*
X128305000Y-71774100D01*
X128304980Y-71774120D02*
G75*
G02X129965660Y-70113400I1660700J20D01*
G01*
X129965660Y-70113400D02*
X139291800Y-70113400D01*
X139291800Y-70113400D02*
G75*
G02X140805000Y-71626600I0J-1513200D01*
G01*
X140805000Y-71626600D02*
X140805000Y-80952740D01*
X140804980Y-80952720D02*
G75*
G02X139144300Y-82613400I-1660680J0D01*
G01*
X139144300Y-82613400D02*
X130101050Y-82613400D01*
X130101050Y-82613400D02*
G75*
G02X128305000Y-80817350I0J1796050D01*
G01*
D14*
X138426300Y-74113400D02*
G75*
G03X138426300Y-74113400I-2121300J0D01*
G01*
D13*
X130305000Y-77113400D02*
X133305000Y-77113400D01*
X133305000Y-77113400D02*
X133305000Y-77513400D01*
X133305000Y-77513400D02*
X133305000Y-77813400D01*
X133305000Y-77813400D02*
X133305000Y-78113400D01*
X133305000Y-78113400D02*
X133305000Y-78413400D01*
X133305000Y-78413400D02*
X133305000Y-78713400D01*
X133305000Y-78713400D02*
X133305000Y-79113400D01*
X133305000Y-79113400D02*
X130305000Y-79113400D01*
X130305000Y-79113400D02*
X130305000Y-78713400D01*
X130305000Y-78713400D02*
X130305000Y-78413400D01*
X130305000Y-78413400D02*
X130305000Y-77513400D01*
X130305000Y-77513400D02*
X130305000Y-77113400D01*
X133305000Y-77513400D02*
X133905000Y-77513400D01*
X133305000Y-77813400D02*
X133905000Y-77813400D01*
X133305000Y-78113400D02*
X133905000Y-78113400D01*
X133305000Y-78413400D02*
X133905000Y-78413400D01*
X133305000Y-78713400D02*
X133905000Y-78713400D01*
X129705000Y-77513400D02*
X130305000Y-77513400D01*
X129705000Y-77813400D02*
X130305000Y-77813400D01*
X129705000Y-78113400D02*
X130305000Y-78113400D01*
X129705000Y-78413400D02*
X130305000Y-78413400D01*
X129705000Y-78713400D02*
X130305000Y-78713400D01*
D15*
X117800000Y-61138400D02*
X117800000Y-47138400D01*
X110200000Y-61138400D02*
X117800000Y-61138400D01*
X117800000Y-47138400D02*
X110200000Y-47138400D01*
X110600000Y-47138400D02*
X110600000Y-61138400D01*
X111700000Y-47138400D02*
X111700000Y-61138400D01*
X110600000Y-57638400D02*
X110200000Y-57638400D01*
X110600000Y-54138400D02*
X110200000Y-54138400D01*
X110600000Y-50638400D02*
X110200000Y-50638400D01*
D11*
X155273000Y-65192600D02*
X155273000Y-66522600D01*
X153943000Y-65192600D02*
X155273000Y-65192600D01*
X152673000Y-67852600D02*
X152673000Y-65192600D01*
X124673000Y-67852600D02*
X152673000Y-67852600D01*
X124673000Y-65192600D02*
X124673000Y-67852600D01*
X152673000Y-65192600D02*
X124673000Y-65192600D01*
X155288000Y-85512600D02*
X155288000Y-86842600D01*
X153958000Y-85512600D02*
X155288000Y-85512600D01*
X152688000Y-88172600D02*
X152688000Y-85512600D01*
X114528000Y-88172600D02*
X152688000Y-88172600D01*
X114528000Y-85512600D02*
X114528000Y-88172600D01*
X152688000Y-85512600D02*
X114528000Y-85512600D01*
D15*
X139925555Y-55492400D02*
X139518969Y-55085814D01*
X132607000Y-62810955D02*
X132129703Y-62333658D01*
X125288445Y-55492400D02*
X125765742Y-55969697D01*
X132607000Y-48173845D02*
X133084297Y-48651142D01*
X139925555Y-55492400D02*
X139448258Y-55969697D01*
X132607000Y-48173845D02*
X132129703Y-48651142D01*
X125288445Y-55492400D02*
X125765742Y-55015103D01*
X132607000Y-62810955D02*
X133084297Y-62333658D01*
X139518969Y-55085814D02*
X140420530Y-54184252D01*
X146966428Y-82789352D02*
X146966428Y-82027447D01*
X147347380Y-82408400D02*
X146585476Y-82408400D01*
X127434428Y-80975352D02*
X127434428Y-80213447D01*
X127815380Y-80594400D02*
X127053476Y-80594400D01*
M02*
