M48
INCH,TZ
T1C0.0157
T2C0.0394
T3C0.0472
T4C0.0669
T5C0.0866
%
G90
G05
T1
X44140Y-24616
X44187Y-19004
X44389Y-27000
X45094Y-24116
X45297Y-16194
X45628Y-24377
X45969Y-19537
X46012Y-23737
X46176Y-28954
X46726Y-27446
X46889Y-21515
X47168Y-24403
X47168Y-28155
X47207Y-28680
X47424Y-29067
X47453Y-24827
X47453Y-26686
X47456Y-27446
X47671Y-18032
X47814Y-18797
X47827Y-19667
X47888Y-24110
X48080Y-33838
X48477Y-19924
X48659Y-17362
X48738Y-23082
X48934Y-17076
X48935Y-21516
X49268Y-22990
X49271Y-25711
X49605Y-23488
X49605Y-25409
X49605Y-17254
X49845Y-20075
X49996Y-23747
X50165Y-19831
X50357Y-21451
X50395Y-18431
X50398Y-17544
X50765Y-21043
X50841Y-19204
X50866Y-18546
X51022Y-22282
X51134Y-27107
X51156Y-18962
X51298Y-17373
X51335Y-22638
X51358Y-23414
X51500Y-20148
X51771Y-19863
X52077Y-23841
X52271Y-23071
X52316Y-21227
X52686Y-25587
X52763Y-20009
X52846Y-20902
X52937Y-20450
X53058Y-21497
X53154Y-22823
X53176Y-23216
X53483Y-20712
X53519Y-22363
X53533Y-27489
X53533Y-30247
X53661Y-19227
X53695Y-21285
X54070Y-33148
X54378Y-21846
X54460Y-18930
X54912Y-24836
X55151Y-30134
X55332Y-18574
X55553Y-28728
X55708Y-24047
X55769Y-24830
X55876Y-16732
X56107Y-26502
X56202Y-29779
X56439Y-20289
X56465Y-21783
X56479Y-16775
X56713Y-19842
X56828Y-24719
X56881Y-21786
X57071Y-19117
X57138Y-17435
X57460Y-26843
X57490Y-30322
X57651Y-31980
X57747Y-27390
X58155Y-21753
X58269Y-18420
X58767Y-23803
X59389Y-23690
X59502Y-17238
X59639Y-23164
X59640Y-20708
X59643Y-21281
X59896Y-17091
X60008Y-32173
X60057Y-23664
X60315Y-26798
X60650Y-23919
X61038Y-27444
X61602Y-26936
X62139Y-24240
X62555Y-19582
X62726Y-33203
T2
X45613Y-34190
X46613Y-34190
X47613Y-34190
X48613Y-34190
X49613Y-34190
X50613Y-34190
X51613Y-34190
X52613Y-34190
X53613Y-34190
X54613Y-34190
X55613Y-34190
X56613Y-34190
X57613Y-34190
X58613Y-34190
X59613Y-34190
X60613Y-34190
X49607Y-26190
X50607Y-26190
X51607Y-26190
X52607Y-26190
X53607Y-26190
X54607Y-26190
X55607Y-26190
X56607Y-26190
X57607Y-26190
X58607Y-26190
X59607Y-26190
X60607Y-26190
T3
X57807Y-20247
X57807Y-21232
X57807Y-22216
X57807Y-23200
X58792Y-20247
X58792Y-21232
X58792Y-22216
X58792Y-23200
X45157Y-19247
X45157Y-20625
X45157Y-22003
X45157Y-23381
T4
X61619Y-20247
X61619Y-23200
T5
X61857Y-16997
X62057Y-26397
X44507Y-25822
X44483Y-16947
T0
M30
