G04 #@! TF.GenerationSoftware,KiCad,Pcbnew,(5.1.5)-3*
G04 #@! TF.CreationDate,2020-05-14T20:53:58+10:00*
G04 #@! TF.ProjectId,V9203_Devkit,56393230-335f-4446-9576-6b69742e6b69,rev?*
G04 #@! TF.SameCoordinates,Original*
G04 #@! TF.FileFunction,Copper,L2,Bot*
G04 #@! TF.FilePolarity,Positive*
%FSLAX46Y46*%
G04 Gerber Fmt 4.6, Leading zero omitted, Abs format (unit mm)*
G04 Created by KiCad (PCBNEW (5.1.5)-3) date 2020-05-14 20:53:58*
%MOMM*%
%LPD*%
G04 APERTURE LIST*
%ADD10C,1.700000*%
%ADD11C,0.100000*%
%ADD12R,0.970000X1.270000*%
%ADD13R,0.600000X0.500000*%
%ADD14R,1.270000X0.970000*%
%ADD15R,0.600000X0.400000*%
%ADD16R,0.900000X0.500000*%
%ADD17R,0.500000X0.900000*%
%ADD18R,0.500000X0.600000*%
%ADD19R,0.400000X0.600000*%
%ADD20R,1.200000X0.900000*%
%ADD21R,2.400000X2.400000*%
%ADD22C,2.400000*%
%ADD23O,1.700000X1.700000*%
%ADD24R,1.700000X1.700000*%
%ADD25C,0.800000*%
%ADD26C,0.250000*%
%ADD27C,0.254000*%
G04 APERTURE END LIST*
D10*
X149331000Y-58928400D03*
X149331000Y-56428400D03*
X149331000Y-53928400D03*
X149331000Y-51428400D03*
X146831000Y-58928400D03*
X146831000Y-56428400D03*
X146831000Y-53928400D03*
G04 #@! TA.AperFunction,ComponentPad*
D11*
G36*
X147455504Y-50579604D02*
G01*
X147479773Y-50583204D01*
X147503571Y-50589165D01*
X147526671Y-50597430D01*
X147548849Y-50607920D01*
X147569893Y-50620533D01*
X147589598Y-50635147D01*
X147607777Y-50651623D01*
X147624253Y-50669802D01*
X147638867Y-50689507D01*
X147651480Y-50710551D01*
X147661970Y-50732729D01*
X147670235Y-50755829D01*
X147676196Y-50779627D01*
X147679796Y-50803896D01*
X147681000Y-50828400D01*
X147681000Y-52028400D01*
X147679796Y-52052904D01*
X147676196Y-52077173D01*
X147670235Y-52100971D01*
X147661970Y-52124071D01*
X147651480Y-52146249D01*
X147638867Y-52167293D01*
X147624253Y-52186998D01*
X147607777Y-52205177D01*
X147589598Y-52221653D01*
X147569893Y-52236267D01*
X147548849Y-52248880D01*
X147526671Y-52259370D01*
X147503571Y-52267635D01*
X147479773Y-52273596D01*
X147455504Y-52277196D01*
X147431000Y-52278400D01*
X146231000Y-52278400D01*
X146206496Y-52277196D01*
X146182227Y-52273596D01*
X146158429Y-52267635D01*
X146135329Y-52259370D01*
X146113151Y-52248880D01*
X146092107Y-52236267D01*
X146072402Y-52221653D01*
X146054223Y-52205177D01*
X146037747Y-52186998D01*
X146023133Y-52167293D01*
X146010520Y-52146249D01*
X146000030Y-52124071D01*
X145991765Y-52100971D01*
X145985804Y-52077173D01*
X145982204Y-52052904D01*
X145981000Y-52028400D01*
X145981000Y-50828400D01*
X145982204Y-50803896D01*
X145985804Y-50779627D01*
X145991765Y-50755829D01*
X146000030Y-50732729D01*
X146010520Y-50710551D01*
X146023133Y-50689507D01*
X146037747Y-50669802D01*
X146054223Y-50651623D01*
X146072402Y-50635147D01*
X146092107Y-50620533D01*
X146113151Y-50607920D01*
X146135329Y-50597430D01*
X146158429Y-50589165D01*
X146182227Y-50583204D01*
X146206496Y-50579604D01*
X146231000Y-50578400D01*
X147431000Y-50578400D01*
X147455504Y-50579604D01*
G37*
G04 #@! TD.AperFunction*
D12*
X143910000Y-70402200D03*
X142640000Y-70402200D03*
X141370000Y-70402200D03*
D13*
X128874000Y-59480200D03*
X127774000Y-59480200D03*
X123794000Y-59480200D03*
X122694000Y-59480200D03*
X132845000Y-59480200D03*
X133945000Y-59480200D03*
D14*
X133522000Y-61283600D03*
X133522000Y-62553600D03*
X133522000Y-63823600D03*
D15*
X125191000Y-60935200D03*
X125191000Y-61835200D03*
X135409000Y-64070400D03*
X135409000Y-63170400D03*
X130271000Y-61094800D03*
X130271000Y-61994800D03*
X125191000Y-63068800D03*
X125191000Y-63968800D03*
X130296000Y-64128400D03*
X130296000Y-63228400D03*
X135325000Y-61929600D03*
X135325000Y-61029600D03*
D16*
X154451000Y-56393400D03*
X154451000Y-57893400D03*
X152546000Y-57893400D03*
X152546000Y-56393400D03*
D17*
X146716000Y-61588400D03*
X148216000Y-61588400D03*
D16*
X152546000Y-54083400D03*
X152546000Y-52583400D03*
D17*
X149891000Y-48888400D03*
X151391000Y-48888400D03*
X146716000Y-48888400D03*
X148216000Y-48888400D03*
X151391000Y-61588400D03*
X149891000Y-61588400D03*
D16*
X154451000Y-54083400D03*
X154451000Y-52583400D03*
D18*
X125038000Y-55340000D03*
X125038000Y-56440000D03*
X125038000Y-51852400D03*
X125038000Y-52952400D03*
X125038000Y-49447200D03*
X125038000Y-48347200D03*
D13*
X140261000Y-50742600D03*
X139161000Y-50742600D03*
X140253000Y-49396400D03*
X139153000Y-49396400D03*
X140346000Y-55365400D03*
X139246000Y-55365400D03*
X140337000Y-56635400D03*
X139237000Y-56635400D03*
X140304000Y-52393600D03*
X139204000Y-52393600D03*
X140311000Y-53689000D03*
X139211000Y-53689000D03*
X140380000Y-58591200D03*
X139280000Y-58591200D03*
X140380000Y-59810400D03*
X139280000Y-59810400D03*
D14*
X123362000Y-63823600D03*
X123362000Y-62553600D03*
X123362000Y-61283600D03*
X128391000Y-61283600D03*
X128391000Y-62553600D03*
X128391000Y-63823600D03*
D19*
X142550000Y-49345600D03*
X141650000Y-49345600D03*
D15*
X123565000Y-51950800D03*
X123565000Y-52850800D03*
D19*
X142575000Y-53739800D03*
X141675000Y-53739800D03*
X141650000Y-50768000D03*
X142550000Y-50768000D03*
X142550000Y-52342800D03*
X141650000Y-52342800D03*
X141701000Y-56686200D03*
X142601000Y-56686200D03*
X142601000Y-55365400D03*
X141701000Y-55365400D03*
X141726000Y-58616600D03*
X142626000Y-58616600D03*
X142640000Y-59785000D03*
X141740000Y-59785000D03*
D15*
X123514000Y-49345600D03*
X123514000Y-48445600D03*
X123667000Y-56392400D03*
X123667000Y-55492400D03*
D20*
X119468000Y-48888400D03*
X121668000Y-48888400D03*
X121668000Y-52411200D03*
X119468000Y-52411200D03*
X119442000Y-55873400D03*
X121642000Y-55873400D03*
D21*
X114700000Y-48888400D03*
D22*
X114700000Y-52388400D03*
X114700000Y-59388400D03*
X114700000Y-55888400D03*
D23*
X126003000Y-66522600D03*
X128543000Y-66522600D03*
X131083000Y-66522600D03*
X133623000Y-66522600D03*
X136163000Y-66522600D03*
X138703000Y-66522600D03*
X141243000Y-66522600D03*
X143783000Y-66522600D03*
X146323000Y-66522600D03*
X148863000Y-66522600D03*
X151403000Y-66522600D03*
D24*
X153943000Y-66522600D03*
D23*
X115858000Y-86842600D03*
X118398000Y-86842600D03*
X120938000Y-86842600D03*
X123478000Y-86842600D03*
X126018000Y-86842600D03*
X128558000Y-86842600D03*
X131098000Y-86842600D03*
X133638000Y-86842600D03*
X136178000Y-86842600D03*
X138718000Y-86842600D03*
X141258000Y-86842600D03*
X143798000Y-86842600D03*
X146338000Y-86842600D03*
X148878000Y-86842600D03*
X151418000Y-86842600D03*
D24*
X153958000Y-86842600D03*
D25*
X146432300Y-81228400D03*
X146677500Y-69571400D03*
X134766429Y-54603355D03*
X134228627Y-53090269D03*
X144959300Y-48556100D03*
X128944300Y-53448600D03*
X126607500Y-50989700D03*
X130448900Y-59472600D03*
X132276300Y-60556200D03*
X124295500Y-54650200D03*
X151493600Y-54054400D03*
X150848300Y-60172800D03*
X138119491Y-55489487D03*
X135939342Y-56801588D03*
X147713800Y-55253000D03*
X144477300Y-55335200D03*
X143419900Y-55328400D03*
X143356100Y-51533700D03*
X149268900Y-60458400D03*
X152546000Y-60107700D03*
X151485300Y-52599100D03*
X144050700Y-50398300D03*
X154050600Y-60754700D03*
X151484000Y-58835400D03*
X123130500Y-50607900D03*
X129199300Y-47107000D03*
X131498600Y-50451400D03*
X130809500Y-51177100D03*
X119097300Y-54647100D03*
X121446600Y-47744900D03*
X129135900Y-48776900D03*
X141652200Y-63068800D03*
X128003100Y-46816000D03*
X119906200Y-72847100D03*
X142753100Y-75638500D03*
X144343000Y-62786100D03*
X152135300Y-43411500D03*
X139477700Y-63082200D03*
X125996000Y-43825500D03*
X121083100Y-45800300D03*
X114537800Y-61254500D03*
X119805500Y-71512500D03*
X140082700Y-76539100D03*
X157833700Y-61569000D03*
X153200500Y-68068100D03*
X145948800Y-68181000D03*
X146025700Y-77018400D03*
X129936300Y-48162600D03*
X127906300Y-54485000D03*
X136298200Y-48836400D03*
X134019100Y-50824000D03*
X134460242Y-51941808D03*
X135846889Y-52608345D03*
X138328800Y-48081100D03*
X136384481Y-54063334D03*
X128010600Y-44562900D03*
X120455800Y-73829000D03*
X141104600Y-72968600D03*
X142513000Y-67314100D03*
X158890600Y-49738800D03*
X133821600Y-64990600D03*
X127419800Y-50370400D03*
X121480000Y-49955300D03*
X125148300Y-65305700D03*
X126990600Y-60318600D03*
X125995700Y-59658900D03*
X125995700Y-64537700D03*
X120530800Y-63061600D03*
X120530800Y-67782500D03*
X129881500Y-68852000D03*
X156468000Y-68417900D03*
X112749100Y-68579500D03*
X148003600Y-46787800D03*
X145130500Y-44284600D03*
X141924900Y-42499100D03*
X115053800Y-41132000D03*
X117287600Y-73543400D03*
X135974600Y-76826400D03*
X135974600Y-69822900D03*
X143456900Y-42607800D03*
X132769400Y-58599100D03*
X155036600Y-69707500D03*
X152419500Y-81718800D03*
X137338400Y-84196600D03*
X135066731Y-58969370D03*
X141497429Y-61080355D03*
X135010380Y-57970947D03*
X116871700Y-60292900D03*
X115894900Y-61918300D03*
X112114500Y-62523700D03*
X112236200Y-48269100D03*
X124293600Y-43374000D03*
X130297700Y-44126400D03*
X121636700Y-61238700D03*
X122123300Y-85948100D03*
X159323200Y-84334900D03*
X151134900Y-43783400D03*
X119805500Y-61983200D03*
X120538200Y-69712500D03*
X118684300Y-69712500D03*
X116760900Y-49623100D03*
X123593000Y-44099300D03*
X140543800Y-47179200D03*
X132882411Y-53917453D03*
X125141200Y-58393500D03*
X129594900Y-56596200D03*
X123794000Y-58627600D03*
X130391500Y-57500700D03*
D26*
X119468000Y-48888400D02*
X114700000Y-48888400D01*
X114700000Y-52388400D02*
X114722800Y-52411200D01*
X114722800Y-52411200D02*
X119468000Y-52411200D01*
X119442000Y-55873400D02*
X114715000Y-55873400D01*
X114715000Y-55873400D02*
X114700000Y-55888400D01*
X146432300Y-81228400D02*
X146798600Y-80862100D01*
X146798600Y-80862100D02*
X146798600Y-69692500D01*
X146798600Y-69692500D02*
X146677500Y-69571400D01*
X140380000Y-58591200D02*
X141005300Y-58591200D01*
X141726000Y-58616600D02*
X141030700Y-58616600D01*
X141030700Y-58616600D02*
X141005300Y-58591200D01*
X140304999Y-58016199D02*
X138374196Y-58016199D01*
X138374196Y-58016199D02*
X137228053Y-56870056D01*
X140380000Y-58091200D02*
X140304999Y-58016199D01*
X140380000Y-58591200D02*
X140380000Y-58091200D01*
X134766429Y-54603355D02*
X137033130Y-56870056D01*
X137033130Y-56870056D02*
X137228053Y-56870056D01*
X141583000Y-59785000D02*
X141740000Y-59785000D01*
X141189300Y-59810400D02*
X141214700Y-59785000D01*
X140380000Y-59810400D02*
X141189300Y-59810400D01*
X141583000Y-59785000D02*
X141214700Y-59785000D01*
X138450152Y-60385400D02*
X134041428Y-55976676D01*
X140380000Y-59810400D02*
X140380000Y-60310400D01*
X134041428Y-53843153D02*
X134228627Y-53655954D01*
X140380000Y-60310400D02*
X140305000Y-60385400D01*
X134041428Y-55976676D02*
X134041428Y-53843153D01*
X134228627Y-53655954D02*
X134228627Y-53090269D01*
X140305000Y-60385400D02*
X138450152Y-60385400D01*
X150466300Y-61588400D02*
X150466300Y-60554800D01*
X150466300Y-60554800D02*
X150848300Y-60172800D01*
X152546000Y-56968700D02*
X152814700Y-56968700D01*
X152814700Y-56968700D02*
X153325300Y-57479300D01*
X153325300Y-57479300D02*
X153325300Y-61468800D01*
X153325300Y-61468800D02*
X151980100Y-62814000D01*
X151980100Y-62814000D02*
X148666300Y-62814000D01*
X148666300Y-62814000D02*
X148216000Y-62363700D01*
X128944300Y-53448600D02*
X128944300Y-54617500D01*
X128944300Y-54617500D02*
X126497000Y-57064800D01*
X144959300Y-48556100D02*
X144775900Y-48739500D01*
X144775900Y-48739500D02*
X144775900Y-49648600D01*
X147640700Y-48888400D02*
X147640700Y-48600800D01*
X147640700Y-48600800D02*
X147139200Y-48099300D01*
X147139200Y-48099300D02*
X145416100Y-48099300D01*
X145416100Y-48099300D02*
X144959300Y-48556100D01*
X123478000Y-85667300D02*
X122401700Y-84591000D01*
X122401700Y-84591000D02*
X122401700Y-61283600D01*
X128391000Y-60473300D02*
X128046000Y-60473300D01*
X128046000Y-60473300D02*
X127715900Y-60143200D01*
X127715900Y-60143200D02*
X127715900Y-60018100D01*
X127715900Y-60018100D02*
X127291100Y-59593300D01*
X127291100Y-59593300D02*
X127254400Y-59593300D01*
X127254400Y-59593300D02*
X127221700Y-59560600D01*
X127221700Y-59560600D02*
X127221700Y-59457200D01*
X127221700Y-59457200D02*
X127774000Y-58904900D01*
X139204000Y-52393600D02*
X139204000Y-53106700D01*
X139204000Y-53106700D02*
X139211000Y-53113700D01*
X144775900Y-49648600D02*
X144875700Y-49748400D01*
X144875700Y-49748400D02*
X144875700Y-51228800D01*
X144875700Y-51228800D02*
X142990800Y-53113700D01*
X142990800Y-53113700D02*
X139211000Y-53113700D01*
X139161000Y-49979700D02*
X143363200Y-49979700D01*
X143363200Y-49979700D02*
X143694300Y-49648600D01*
X143694300Y-49648600D02*
X144775900Y-49648600D01*
X139280000Y-58591200D02*
X139280000Y-59810400D01*
X122401700Y-61283600D02*
X122401700Y-60549800D01*
X122401700Y-60549800D02*
X121700400Y-59848500D01*
X126497000Y-57064800D02*
X126497000Y-57627900D01*
X126497000Y-57627900D02*
X127774000Y-58904900D01*
X126064000Y-57064800D02*
X126497000Y-57064800D01*
X148216000Y-48888400D02*
X147640700Y-48888400D01*
X149891000Y-48888400D02*
X148216000Y-48888400D01*
X121700400Y-59848500D02*
X122068700Y-59480200D01*
X114700000Y-59388400D02*
X121240300Y-59388400D01*
X121240300Y-59388400D02*
X121700400Y-59848500D01*
X139237000Y-56060100D02*
X139237000Y-55949700D01*
X139237000Y-55949700D02*
X139246000Y-55940700D01*
X139237000Y-56635400D02*
X139237000Y-56060100D01*
X139153000Y-49971700D02*
X139161000Y-49979700D01*
X139161000Y-49979700D02*
X139161000Y-50742600D01*
X132845000Y-59911600D02*
X132276300Y-60480300D01*
X132276300Y-60480300D02*
X132276300Y-60556200D01*
X139246000Y-55365400D02*
X139246000Y-55940700D01*
X139153000Y-49396400D02*
X139153000Y-49971700D01*
X128391000Y-60473300D02*
X128391000Y-60473200D01*
X128391000Y-60473200D02*
X129448300Y-60473200D01*
X129448300Y-60473200D02*
X130448900Y-59472600D01*
X139211000Y-53689000D02*
X139211000Y-53113700D01*
X152546000Y-56968700D02*
X152258400Y-56968700D01*
X152258400Y-56968700D02*
X150758700Y-58468400D01*
X150758700Y-58468400D02*
X150758700Y-60083200D01*
X150758700Y-60083200D02*
X150848300Y-60172800D01*
X132845000Y-59911600D02*
X132845000Y-59480200D01*
X126064000Y-57064800D02*
X126017200Y-57111600D01*
X126017200Y-57111600D02*
X123860900Y-57111600D01*
X123860900Y-57111600D02*
X123667000Y-56917700D01*
X124750400Y-52952400D02*
X126064000Y-54266000D01*
X126064000Y-54266000D02*
X126064000Y-57064800D01*
X114700000Y-59388400D02*
X113157200Y-57845600D01*
X113157200Y-57845600D02*
X113157200Y-55262100D01*
X113157200Y-55262100D02*
X114502900Y-53916400D01*
X114502900Y-53916400D02*
X121874100Y-53916400D01*
X121874100Y-53916400D02*
X122939700Y-52850800D01*
X152546000Y-54083400D02*
X151522600Y-54083400D01*
X151522600Y-54083400D02*
X151493600Y-54054400D01*
X125038000Y-49447200D02*
X125613300Y-49447200D01*
X125613300Y-49447200D02*
X125811200Y-49645100D01*
X125811200Y-49645100D02*
X127720300Y-49645100D01*
X127720300Y-49645100D02*
X128181900Y-50106700D01*
X128181900Y-50106700D02*
X128181900Y-50646100D01*
X128181900Y-50646100D02*
X127732200Y-51095800D01*
X127732200Y-51095800D02*
X126713600Y-51095800D01*
X126713600Y-51095800D02*
X126607500Y-50989700D01*
X124139300Y-49345600D02*
X124240900Y-49447200D01*
X124240900Y-49447200D02*
X125038000Y-49447200D01*
X132845000Y-59911600D02*
X132845000Y-60055500D01*
X128391000Y-61283600D02*
X128391000Y-60473300D01*
X125038000Y-55340000D02*
X124348200Y-54650200D01*
X124348200Y-54650200D02*
X124295500Y-54650200D01*
X123565000Y-52850800D02*
X122939700Y-52850800D01*
X123565000Y-52850800D02*
X124361100Y-52850800D01*
X124361100Y-52850800D02*
X124462700Y-52952400D01*
X123362000Y-61283600D02*
X122401700Y-61283600D01*
X127774000Y-59480200D02*
X127774000Y-58904900D01*
X124750400Y-52952400D02*
X124462700Y-52952400D01*
X125038000Y-52952400D02*
X124750400Y-52952400D01*
X133522000Y-61283600D02*
X133522000Y-60473300D01*
X132845000Y-60055500D02*
X133104200Y-60055500D01*
X133104200Y-60055500D02*
X133522000Y-60473300D01*
X123514000Y-49345600D02*
X124139300Y-49345600D01*
X123667000Y-56392400D02*
X123667000Y-56917700D01*
X154451000Y-54083400D02*
X152546000Y-54083400D01*
X148216000Y-61588400D02*
X148216000Y-62363700D01*
X149891000Y-61588400D02*
X150466300Y-61588400D01*
X152546000Y-56393400D02*
X152546000Y-56968700D01*
X154451000Y-54083400D02*
X154451000Y-56393400D01*
X122694000Y-59480200D02*
X122068700Y-59480200D01*
X123478000Y-86842600D02*
X123478000Y-85667300D01*
X138690104Y-56060100D02*
X138119491Y-55489487D01*
X139237000Y-56060100D02*
X138690104Y-56060100D01*
X137728954Y-58591200D02*
X135939342Y-56801588D01*
X139280000Y-58591200D02*
X137728954Y-58591200D01*
X146831000Y-53928400D02*
X146831000Y-54008000D01*
X146831000Y-54008000D02*
X142847700Y-57991300D01*
X142847700Y-57991300D02*
X142626000Y-57991300D01*
X146831000Y-53928400D02*
X147467800Y-53928400D01*
X147467800Y-53928400D02*
X148657800Y-52738400D01*
X148657800Y-52738400D02*
X150598900Y-52738400D01*
X150598900Y-52738400D02*
X151184900Y-53324400D01*
X151184900Y-53324400D02*
X154285300Y-53324400D01*
X154285300Y-53324400D02*
X154451000Y-53158700D01*
X142626000Y-58616600D02*
X142626000Y-57991300D01*
X154451000Y-52583400D02*
X154451000Y-53158700D01*
X147713800Y-55253000D02*
X146319900Y-55253000D01*
X146319900Y-55253000D02*
X143165300Y-58407600D01*
X143165300Y-58407600D02*
X143165300Y-59785000D01*
X146831000Y-51428400D02*
X146716000Y-51313400D01*
X146716000Y-51313400D02*
X146716000Y-48888400D01*
X142640000Y-59785000D02*
X143165300Y-59785000D01*
X155143400Y-57893400D02*
X155143400Y-60963400D01*
X155143400Y-60963400D02*
X152358800Y-63748000D01*
X152358800Y-63748000D02*
X147674800Y-63748000D01*
X147674800Y-63748000D02*
X145644900Y-61718100D01*
X145644900Y-61718100D02*
X145644900Y-57614500D01*
X145644900Y-57614500D02*
X146831000Y-56428400D01*
X154451000Y-57893400D02*
X155143400Y-57893400D01*
X143126300Y-56686200D02*
X144477300Y-55335200D01*
X142601000Y-56686200D02*
X143126300Y-56686200D01*
X146831000Y-58928400D02*
X146716000Y-59043400D01*
X146716000Y-59043400D02*
X146716000Y-61588400D01*
X143126300Y-55365400D02*
X143163300Y-55328400D01*
X143163300Y-55328400D02*
X143419900Y-55328400D01*
X142601000Y-55365400D02*
X143126300Y-55365400D01*
X149331000Y-51428400D02*
X149012700Y-51428400D01*
X149012700Y-51428400D02*
X147834800Y-52606300D01*
X147834800Y-52606300D02*
X144233800Y-52606300D01*
X144233800Y-52606300D02*
X143100300Y-53739800D01*
X149331000Y-51428400D02*
X151095700Y-49663700D01*
X151095700Y-49663700D02*
X151391000Y-49663700D01*
X142575000Y-53739800D02*
X143100300Y-53739800D01*
X151391000Y-48888400D02*
X151391000Y-49663700D01*
X142550000Y-52342800D02*
X143075300Y-52342800D01*
X143356100Y-51533700D02*
X143075300Y-51814500D01*
X143075300Y-51814500D02*
X143075300Y-52342800D01*
X152546000Y-52008100D02*
X155052100Y-52008100D01*
X155052100Y-52008100D02*
X155262000Y-52218000D01*
X155262000Y-52218000D02*
X155262000Y-56817600D01*
X155262000Y-56817600D02*
X155110800Y-56968800D01*
X155110800Y-56968800D02*
X153791300Y-56968800D01*
X153791300Y-56968800D02*
X153675600Y-56853100D01*
X153675600Y-56853100D02*
X153675600Y-56335600D01*
X153675600Y-56335600D02*
X152408500Y-55068500D01*
X152408500Y-55068500D02*
X150471100Y-55068500D01*
X150471100Y-55068500D02*
X149331000Y-53928400D01*
X152546000Y-52583400D02*
X152546000Y-52008100D01*
X152546000Y-60107700D02*
X152546000Y-61611200D01*
X152546000Y-61611200D02*
X151793500Y-62363700D01*
X151793500Y-62363700D02*
X149506200Y-62363700D01*
X149506200Y-62363700D02*
X149268900Y-62126400D01*
X149268900Y-62126400D02*
X149268900Y-60458400D01*
X143075300Y-49345600D02*
X144781500Y-47639400D01*
X144781500Y-47639400D02*
X151349400Y-47639400D01*
X151349400Y-47639400D02*
X152010800Y-48300800D01*
X152010800Y-48300800D02*
X152010800Y-51604800D01*
X152010800Y-51604800D02*
X151485300Y-52130300D01*
X151485300Y-52130300D02*
X151485300Y-52599100D01*
X152546000Y-57893400D02*
X152546000Y-60107700D01*
X142550000Y-49345600D02*
X143075300Y-49345600D01*
X151391000Y-60813100D02*
X151603200Y-60600900D01*
X151603200Y-60600900D02*
X151603200Y-58954600D01*
X151603200Y-58954600D02*
X151484000Y-58835400D01*
X149331000Y-58928400D02*
X147601400Y-60658000D01*
X147601400Y-60658000D02*
X147601400Y-62400800D01*
X147601400Y-62400800D02*
X148498300Y-63297700D01*
X148498300Y-63297700D02*
X152155400Y-63297700D01*
X152155400Y-63297700D02*
X154050600Y-61402500D01*
X154050600Y-61402500D02*
X154050600Y-60754700D01*
X144050700Y-50398300D02*
X143681000Y-50768000D01*
X143681000Y-50768000D02*
X142550000Y-50768000D01*
X151391000Y-61588400D02*
X151391000Y-60813100D01*
X123130500Y-50607900D02*
X122999200Y-50739200D01*
X122999200Y-50739200D02*
X121236900Y-50739200D01*
X121236900Y-50739200D02*
X120721300Y-50223600D01*
X120721300Y-50223600D02*
X120721300Y-47393900D01*
X120721300Y-47393900D02*
X121095700Y-47019500D01*
X121095700Y-47019500D02*
X127180800Y-47019500D01*
X127180800Y-47019500D02*
X127730900Y-47569600D01*
X127730900Y-47569600D02*
X128736700Y-47569600D01*
X128736700Y-47569600D02*
X129199300Y-47107000D01*
X125613300Y-48347200D02*
X126460800Y-49194700D01*
X126460800Y-49194700D02*
X128528000Y-49194700D01*
X128528000Y-49194700D02*
X129784700Y-50451400D01*
X129784700Y-50451400D02*
X131498600Y-50451400D01*
X125038000Y-48347200D02*
X125613300Y-48347200D01*
X123201400Y-48445600D02*
X123299800Y-48347200D01*
X123299800Y-48347200D02*
X125038000Y-48347200D01*
X123201400Y-48445600D02*
X122888700Y-48445600D01*
X123514000Y-48445600D02*
X123201400Y-48445600D01*
X121668000Y-48888400D02*
X122593300Y-48888400D01*
X122593300Y-48888400D02*
X122888700Y-48593000D01*
X122888700Y-48593000D02*
X122888700Y-48445600D01*
X130809500Y-51177100D02*
X130134200Y-51852400D01*
X130134200Y-51852400D02*
X125038000Y-51852400D01*
X124462700Y-51852400D02*
X125038000Y-51852400D01*
X123565000Y-51950800D02*
X124364300Y-51950800D01*
X124364300Y-51950800D02*
X124462700Y-51852400D01*
X122939700Y-51950800D02*
X123565000Y-51950800D01*
X121668000Y-52411200D02*
X122593300Y-52411200D01*
X122593300Y-52411200D02*
X122939700Y-52064800D01*
X122939700Y-52064800D02*
X122939700Y-51950800D01*
X121446600Y-47744900D02*
X121502900Y-47688600D01*
X121502900Y-47688600D02*
X126738800Y-47688600D01*
X126738800Y-47688600D02*
X127790600Y-48740400D01*
X127790600Y-48740400D02*
X129099400Y-48740400D01*
X129099400Y-48740400D02*
X129135900Y-48776900D01*
X121642000Y-55098100D02*
X121191100Y-54647200D01*
X121191100Y-54647200D02*
X119097300Y-54647200D01*
X119097300Y-54647200D02*
X119097300Y-54647100D01*
X121642000Y-55873400D02*
X121642000Y-55098100D01*
X121642000Y-55098100D02*
X122823900Y-53916200D01*
X122823900Y-53916200D02*
X124705300Y-53916200D01*
X124705300Y-53916200D02*
X125613300Y-54824200D01*
X125613300Y-54824200D02*
X125613300Y-56440000D01*
X125038000Y-56440000D02*
X125613300Y-56440000D01*
X125038000Y-56440000D02*
X124462700Y-56440000D01*
X123667000Y-55492400D02*
X124292300Y-55492400D01*
X124292300Y-55492400D02*
X124292300Y-56269600D01*
X124292300Y-56269600D02*
X124462700Y-56440000D01*
X141652200Y-63068800D02*
X141997700Y-63068800D01*
X141997700Y-63068800D02*
X144963900Y-66035000D01*
X144963900Y-66035000D02*
X144963900Y-73427700D01*
X144963900Y-73427700D02*
X142753100Y-75638500D01*
X146338000Y-85667300D02*
X142753100Y-82082400D01*
X142753100Y-82082400D02*
X142753100Y-75638500D01*
X128003100Y-46816000D02*
X127741200Y-46554100D01*
X127741200Y-46554100D02*
X114171200Y-46554100D01*
X114171200Y-46554100D02*
X112961500Y-47763800D01*
X112961500Y-47763800D02*
X112961500Y-48569600D01*
X112961500Y-48569600D02*
X112253800Y-49277300D01*
X112253800Y-49277300D02*
X112253800Y-61637200D01*
X112253800Y-61637200D02*
X117959000Y-67342400D01*
X117959000Y-67342400D02*
X117959000Y-70899900D01*
X117959000Y-70899900D02*
X119906200Y-72847100D01*
X146338000Y-86842600D02*
X146338000Y-85667300D01*
X144343000Y-62786100D02*
X147188600Y-65631700D01*
X147188600Y-65631700D02*
X147527200Y-65631700D01*
X147527200Y-65631700D02*
X148026300Y-65132600D01*
X148026300Y-65132600D02*
X152031600Y-65132600D01*
X152031600Y-65132600D02*
X157694200Y-59470000D01*
X157694200Y-59470000D02*
X157694200Y-48970400D01*
X157694200Y-48970400D02*
X152135300Y-43411500D01*
X147527200Y-65631700D02*
X147527200Y-87380900D01*
X147527200Y-87380900D02*
X146856200Y-88051900D01*
X146856200Y-88051900D02*
X145815300Y-88051900D01*
X145815300Y-88051900D02*
X144973300Y-87209900D01*
X144973300Y-87209900D02*
X144973300Y-86842600D01*
X143798000Y-86842600D02*
X144973300Y-86842600D01*
X114537800Y-61254500D02*
X114537800Y-62180600D01*
X114537800Y-62180600D02*
X119355200Y-66998000D01*
X119355200Y-66998000D02*
X119355200Y-69048900D01*
X119355200Y-69048900D02*
X119805500Y-69499200D01*
X119805500Y-69499200D02*
X119805500Y-71512500D01*
X121083100Y-45800300D02*
X127799000Y-45800300D01*
X127799000Y-45800300D02*
X128736100Y-44863200D01*
X128736100Y-44863200D02*
X128736100Y-44239500D01*
X128736100Y-44239500D02*
X128322100Y-43825500D01*
X128322100Y-43825500D02*
X125996000Y-43825500D01*
X140082700Y-76539100D02*
X139985600Y-76442000D01*
X139985600Y-76442000D02*
X139985600Y-63590100D01*
X139985600Y-63590100D02*
X139477700Y-63082200D01*
X140082700Y-86842600D02*
X140082700Y-76539100D01*
X141258000Y-86842600D02*
X140082700Y-86842600D01*
X130651900Y-52700900D02*
X131689300Y-53738300D01*
X131689300Y-53738300D02*
X131689300Y-60117500D01*
X131689300Y-60117500D02*
X131551000Y-60255800D01*
X131551000Y-60255800D02*
X131551000Y-62917100D01*
X131551000Y-62917100D02*
X132457500Y-63823600D01*
X153200500Y-68068100D02*
X154598200Y-68068100D01*
X154598200Y-68068100D02*
X155292500Y-67373800D01*
X155292500Y-67373800D02*
X155292500Y-64110200D01*
X155292500Y-64110200D02*
X157833700Y-61569000D01*
X129936300Y-48162600D02*
X130294200Y-48162600D01*
X130294200Y-48162600D02*
X132252900Y-50121300D01*
X132252900Y-50121300D02*
X132252900Y-51099900D01*
X132252900Y-51099900D02*
X130651900Y-52700900D01*
X125010100Y-64149700D02*
X125010100Y-64149800D01*
X125010100Y-64149800D02*
X125010100Y-64269400D01*
X125010100Y-64269400D02*
X124825100Y-64454400D01*
X124825100Y-64454400D02*
X124825100Y-64603200D01*
X124825100Y-64603200D02*
X124423000Y-65005300D01*
X124423000Y-65005300D02*
X124423000Y-65606100D01*
X124423000Y-65606100D02*
X124825100Y-66008200D01*
X124825100Y-66008200D02*
X124825100Y-67038800D01*
X124825100Y-67038800D02*
X126048600Y-68262300D01*
X126048600Y-68262300D02*
X126252900Y-68262300D01*
X126252900Y-68262300D02*
X127227400Y-69236800D01*
X130651900Y-52700900D02*
X128666300Y-52700900D01*
X128666300Y-52700900D02*
X127906300Y-53460900D01*
X127906300Y-53460900D02*
X127906300Y-54485000D01*
X127227400Y-69236800D02*
X127227400Y-87308800D01*
X127227400Y-87308800D02*
X126510800Y-88025400D01*
X126510800Y-88025400D02*
X120388800Y-88025400D01*
X120388800Y-88025400D02*
X119573300Y-87209900D01*
X119573300Y-87209900D02*
X119573300Y-86842600D01*
X129741500Y-67052800D02*
X127557500Y-69236800D01*
X127557500Y-69236800D02*
X127227400Y-69236800D01*
X132457500Y-63823600D02*
X132286400Y-63994700D01*
X132286400Y-63994700D02*
X132286400Y-66993900D01*
X132286400Y-66993900D02*
X131564600Y-67715700D01*
X131564600Y-67715700D02*
X130404400Y-67715700D01*
X130404400Y-67715700D02*
X129741500Y-67052800D01*
X133522000Y-63823600D02*
X132457500Y-63823600D01*
X145948800Y-68181000D02*
X145948800Y-76941500D01*
X145948800Y-76941500D02*
X146025700Y-77018400D01*
X125010100Y-64149700D02*
X124810800Y-63950500D01*
X124810800Y-63950500D02*
X124449200Y-63950500D01*
X124449200Y-63950500D02*
X124322300Y-63823600D01*
X125010100Y-64149700D02*
X125191000Y-63968800D01*
X129741500Y-64128400D02*
X129741500Y-67052800D01*
X134482300Y-63823600D02*
X134729100Y-64070400D01*
X134729100Y-64070400D02*
X135409000Y-64070400D01*
X129741500Y-64128400D02*
X129656100Y-64128400D01*
X129656100Y-64128400D02*
X129351300Y-63823600D01*
X130296000Y-64128400D02*
X129741500Y-64128400D01*
X133522000Y-63823600D02*
X134482300Y-63823600D01*
X128391000Y-63823600D02*
X129351300Y-63823600D01*
X123362000Y-63823600D02*
X124322300Y-63823600D01*
X118398000Y-86842600D02*
X119573300Y-86842600D01*
X136298200Y-48836400D02*
X137811400Y-47323200D01*
X137811400Y-47323200D02*
X138596700Y-47323200D01*
X138596700Y-47323200D02*
X140246900Y-48973400D01*
X140246900Y-48973400D02*
X140883800Y-48973400D01*
X140883800Y-48973400D02*
X141124700Y-49214300D01*
X141124700Y-49214300D02*
X141124700Y-49345600D01*
X141124700Y-49345600D02*
X141650000Y-49345600D01*
X140253000Y-49396400D02*
X140878300Y-49396400D01*
X140878300Y-49396400D02*
X140929100Y-49345600D01*
X140929100Y-49345600D02*
X141124700Y-49345600D01*
X140304000Y-51818300D02*
X137114700Y-51818300D01*
X137114700Y-51818300D02*
X136120400Y-50824000D01*
X136120400Y-50824000D02*
X134019100Y-50824000D01*
X140304000Y-52393600D02*
X140304000Y-51818300D01*
X141124700Y-52342800D02*
X141073900Y-52393600D01*
X141073900Y-52393600D02*
X140304000Y-52393600D01*
X141612600Y-52342800D02*
X141650000Y-52342800D01*
X141612600Y-52342800D02*
X141575200Y-52342800D01*
X141500000Y-52342800D02*
X141124700Y-52342800D01*
X141500000Y-52342800D02*
X141575200Y-52342800D01*
X141149700Y-53739800D02*
X141098900Y-53689000D01*
X141098900Y-53689000D02*
X140311000Y-53689000D01*
X141650600Y-53739800D02*
X141675000Y-53739800D01*
X141650600Y-53739800D02*
X141626200Y-53739800D01*
X141538000Y-53739800D02*
X141626200Y-53739800D01*
X141538000Y-53739800D02*
X141149700Y-53739800D01*
X140311000Y-54189000D02*
X140235700Y-54264300D01*
X140311000Y-53689000D02*
X140311000Y-54189000D01*
X134860241Y-51541809D02*
X134460242Y-51941808D01*
X135832413Y-51541809D02*
X134860241Y-51541809D01*
X140235700Y-54264300D02*
X138554904Y-54264300D01*
X138554904Y-54264300D02*
X135832413Y-51541809D01*
X141175700Y-56686200D02*
X140938900Y-56923000D01*
X140938900Y-56923000D02*
X140337000Y-56923000D01*
X140337000Y-56779200D02*
X140337000Y-56635400D01*
X140337000Y-56779200D02*
X140337000Y-56923000D01*
X141701000Y-56686200D02*
X141175700Y-56686200D01*
X140337000Y-56923000D02*
X140031200Y-57228800D01*
X138663285Y-57228800D02*
X137121440Y-55686955D01*
X135446890Y-54333052D02*
X135446890Y-53008344D01*
X137121440Y-55051955D02*
X136857829Y-54788344D01*
X137121440Y-55686955D02*
X137121440Y-55051955D01*
X135902182Y-54788344D02*
X135446890Y-54333052D01*
X140031200Y-57228800D02*
X138663285Y-57228800D01*
X136857829Y-54788344D02*
X135902182Y-54788344D01*
X135446890Y-53008344D02*
X135846889Y-52608345D01*
X140261000Y-51317900D02*
X138698900Y-51317900D01*
X138698900Y-51317900D02*
X138328800Y-50947800D01*
X138328800Y-50947800D02*
X138328800Y-48081100D01*
X140261000Y-50742600D02*
X140261000Y-51317900D01*
X140261000Y-50742600D02*
X140886300Y-50742600D01*
X140886300Y-50742600D02*
X140911700Y-50768000D01*
X140911700Y-50768000D02*
X141650000Y-50768000D01*
X140346000Y-55365400D02*
X141701000Y-55365400D01*
X140346000Y-54865400D02*
X140198851Y-54718251D01*
X140346000Y-55365400D02*
X140346000Y-54865400D01*
X137605083Y-54718251D02*
X136950166Y-54063334D01*
X140198851Y-54718251D02*
X137605083Y-54718251D01*
X136950166Y-54063334D02*
X136384481Y-54063334D01*
X128010600Y-44562900D02*
X127748900Y-44824600D01*
X127748900Y-44824600D02*
X114655000Y-44824600D01*
X114655000Y-44824600D02*
X111296900Y-48182700D01*
X111296900Y-48182700D02*
X111296900Y-65883000D01*
X111296900Y-65883000D02*
X119242900Y-73829000D01*
X119242900Y-73829000D02*
X120455800Y-73829000D01*
X141104600Y-72968600D02*
X141104600Y-72897900D01*
X141104600Y-72897900D02*
X142640000Y-71362500D01*
X142640000Y-70402200D02*
X142640000Y-71362500D01*
X142513000Y-67314100D02*
X142640000Y-67441100D01*
X142640000Y-67441100D02*
X142640000Y-70402200D01*
X158890600Y-49738800D02*
X158890600Y-61537900D01*
X158890600Y-61537900D02*
X155742900Y-64685600D01*
X155742900Y-64685600D02*
X155742900Y-67933500D01*
X155742900Y-67933500D02*
X150148000Y-73528400D01*
X150148000Y-73528400D02*
X150148000Y-87256300D01*
X150148000Y-87256300D02*
X148841300Y-88563000D01*
X148841300Y-88563000D02*
X138670000Y-88563000D01*
X138670000Y-88563000D02*
X137448000Y-87341000D01*
X137448000Y-87341000D02*
X137448000Y-86212400D01*
X137448000Y-86212400D02*
X134893000Y-83657400D01*
X134893000Y-83657400D02*
X134893000Y-66062000D01*
X134893000Y-66062000D02*
X133821600Y-64990600D01*
X127419800Y-50370400D02*
X127313800Y-50264400D01*
X127313800Y-50264400D02*
X123812800Y-50264400D01*
X123812800Y-50264400D02*
X123431000Y-49882600D01*
X123431000Y-49882600D02*
X121552700Y-49882600D01*
X121552700Y-49882600D02*
X121480000Y-49955300D01*
X126990600Y-60318600D02*
X126990600Y-64575300D01*
X126990600Y-64575300D02*
X126260200Y-65305700D01*
X126260200Y-65305700D02*
X125148300Y-65305700D01*
X125995700Y-64537700D02*
X125995700Y-59658900D01*
X124878400Y-63068800D02*
X125191000Y-62756200D01*
X125191000Y-62756200D02*
X125191000Y-61835200D01*
X124878400Y-63068800D02*
X124565700Y-63068800D01*
X125191000Y-63068800D02*
X124878400Y-63068800D01*
X123362000Y-62553600D02*
X124322300Y-62553600D01*
X124322300Y-62553600D02*
X124322300Y-62825400D01*
X124322300Y-62825400D02*
X124565700Y-63068800D01*
X130271000Y-62553600D02*
X130271000Y-61994800D01*
X130296000Y-62703100D02*
X130271000Y-62678100D01*
X130271000Y-62678100D02*
X130271000Y-62553600D01*
X130271000Y-62553600D02*
X128391000Y-62553600D01*
X130296000Y-63228400D02*
X130296000Y-62703100D01*
X129881500Y-68852000D02*
X129881500Y-81106100D01*
X129881500Y-81106100D02*
X134878800Y-86103400D01*
X134878800Y-86103400D02*
X134878800Y-87215900D01*
X134878800Y-87215900D02*
X136689000Y-89026100D01*
X136689000Y-89026100D02*
X150908800Y-89026100D01*
X150908800Y-89026100D02*
X152782600Y-87152300D01*
X152782600Y-87152300D02*
X152782600Y-82487000D01*
X152782600Y-82487000D02*
X156468000Y-78801600D01*
X156468000Y-78801600D02*
X156468000Y-68417900D01*
X120530800Y-67782500D02*
X120530800Y-63061600D01*
X148003600Y-46787800D02*
X148003600Y-45491800D01*
X148003600Y-45491800D02*
X143944000Y-41432200D01*
X143944000Y-41432200D02*
X117410500Y-41432200D01*
X117410500Y-41432200D02*
X110846600Y-47996100D01*
X110846600Y-47996100D02*
X110846600Y-66677000D01*
X110846600Y-66677000D02*
X112749100Y-68579500D01*
X135974600Y-76826400D02*
X135974600Y-69822900D01*
X141924900Y-42499100D02*
X142541500Y-41882500D01*
X142541500Y-41882500D02*
X143757400Y-41882500D01*
X143757400Y-41882500D02*
X145130500Y-43255600D01*
X145130500Y-43255600D02*
X145130500Y-44284600D01*
X117287600Y-73543400D02*
X116620800Y-73543400D01*
X116620800Y-73543400D02*
X110395600Y-67318200D01*
X110395600Y-67318200D02*
X110395600Y-47810200D01*
X110395600Y-47810200D02*
X115053800Y-43152000D01*
X115053800Y-43152000D02*
X115053800Y-41132000D01*
X143456900Y-45337800D02*
X140850900Y-47943800D01*
X132769400Y-51044300D02*
X132769400Y-52957460D01*
X136991000Y-46822700D02*
X132769400Y-51044300D01*
X132769400Y-52957460D02*
X132157409Y-53569451D01*
X140850900Y-47943800D02*
X140172600Y-47943800D01*
X140172600Y-47943800D02*
X139051500Y-46822700D01*
X139051500Y-46822700D02*
X136991000Y-46822700D01*
X132157409Y-57987109D02*
X132769400Y-58599100D01*
X143456900Y-42607800D02*
X143456900Y-45337800D01*
X132157409Y-53569451D02*
X132157409Y-57987109D01*
X152419500Y-81718800D02*
X155036600Y-79101700D01*
X155036600Y-79101700D02*
X155036600Y-69707500D01*
X137338400Y-84196600D02*
X137338400Y-61241039D01*
X137338400Y-61241039D02*
X135066731Y-58969370D01*
X135399286Y-57970947D02*
X135010380Y-57970947D01*
X141497429Y-61080355D02*
X138508694Y-61080355D01*
X138508694Y-61080355D02*
X135399286Y-57970947D01*
X124293600Y-43374000D02*
X125041100Y-42626500D01*
X125041100Y-42626500D02*
X128797800Y-42626500D01*
X128797800Y-42626500D02*
X130297700Y-44126400D01*
X112236200Y-48269100D02*
X111747200Y-48758100D01*
X111747200Y-48758100D02*
X111747200Y-62156400D01*
X111747200Y-62156400D02*
X112114500Y-62523700D01*
X115894900Y-61918300D02*
X115894900Y-61269700D01*
X115894900Y-61269700D02*
X116871700Y-60292900D01*
X159323200Y-84334900D02*
X159615900Y-84042200D01*
X159615900Y-84042200D02*
X159615900Y-49424300D01*
X159615900Y-49424300D02*
X152877800Y-42686200D01*
X152877800Y-42686200D02*
X151802600Y-42686200D01*
X151802600Y-42686200D02*
X151134900Y-43353900D01*
X151134900Y-43353900D02*
X151134900Y-43783400D01*
X122123300Y-85948100D02*
X121636700Y-85461500D01*
X121636700Y-85461500D02*
X121636700Y-61238700D01*
X119805500Y-61983200D02*
X119805500Y-68810300D01*
X119805500Y-68810300D02*
X120538200Y-69543000D01*
X120538200Y-69543000D02*
X120538200Y-69712500D01*
X123593000Y-44099300D02*
X124657700Y-44099300D01*
X124657700Y-44099300D02*
X125680200Y-43076800D01*
X125680200Y-43076800D02*
X128308600Y-43076800D01*
X128308600Y-43076800D02*
X129235500Y-44003700D01*
X129235500Y-44003700D02*
X129235500Y-44136200D01*
X129235500Y-44136200D02*
X130899400Y-45800100D01*
X130899400Y-45800100D02*
X139164700Y-45800100D01*
X139164700Y-45800100D02*
X140543800Y-47179200D01*
X118684300Y-69712500D02*
X118684300Y-66972100D01*
X118684300Y-66972100D02*
X112704100Y-60991900D01*
X112704100Y-60991900D02*
X112704100Y-52156700D01*
X112704100Y-52156700D02*
X114381700Y-50479100D01*
X114381700Y-50479100D02*
X115983100Y-50479100D01*
X115983100Y-50479100D02*
X116760900Y-49701300D01*
X116760900Y-49701300D02*
X116760900Y-49623100D01*
X135885001Y-60504599D02*
X135950001Y-60569599D01*
X135950001Y-60569599D02*
X135950001Y-61854599D01*
X134469399Y-60504599D02*
X135885001Y-60504599D01*
X135875000Y-61929600D02*
X135325000Y-61929600D01*
X133945000Y-59980200D02*
X134469399Y-60504599D01*
X133945000Y-59480200D02*
X133945000Y-59980200D01*
X135950001Y-61854599D02*
X135875000Y-61929600D01*
X133591417Y-54626459D02*
X132882411Y-53917453D01*
X133591417Y-58626617D02*
X133591417Y-54626459D01*
X133945000Y-59480200D02*
X133945000Y-58980200D01*
X133945000Y-58980200D02*
X133591417Y-58626617D01*
X135325000Y-61029600D02*
X134699700Y-61029600D01*
X134699700Y-61029600D02*
X134699700Y-62336200D01*
X134699700Y-62336200D02*
X134482300Y-62553600D01*
X133522000Y-62553600D02*
X134482300Y-62553600D01*
X135409000Y-63170400D02*
X135409000Y-62645100D01*
X135409000Y-62645100D02*
X134573800Y-62645100D01*
X134573800Y-62645100D02*
X134482300Y-62553600D01*
X141370000Y-70402200D02*
X141370000Y-67824900D01*
X141370000Y-67824900D02*
X141243000Y-67697900D01*
X141243000Y-66522600D02*
X141243000Y-67697900D01*
X143783000Y-66522600D02*
X143783000Y-69314900D01*
X143783000Y-69314900D02*
X143910000Y-69441900D01*
X143910000Y-70402200D02*
X143910000Y-69441900D01*
X125191000Y-60935200D02*
X125191000Y-60409900D01*
X125191000Y-60409900D02*
X125141200Y-60360100D01*
X125141200Y-60360100D02*
X125141200Y-58393500D01*
X128874000Y-59480200D02*
X128874000Y-57317100D01*
X128874000Y-57317100D02*
X129594900Y-56596200D01*
X123794000Y-59480200D02*
X123794000Y-58627600D01*
X130271000Y-61094800D02*
X130271000Y-60569500D01*
X130271000Y-60569500D02*
X130398600Y-60569500D01*
X130398600Y-60569500D02*
X131220500Y-59747600D01*
X131220500Y-59747600D02*
X131220500Y-58329700D01*
X131220500Y-58329700D02*
X130391500Y-57500700D01*
D27*
G36*
X122482820Y-64898102D02*
G01*
X122602518Y-64934412D01*
X122727000Y-64946672D01*
X123665097Y-64946672D01*
X123663000Y-64967968D01*
X123663000Y-64967978D01*
X123659324Y-65005300D01*
X123663000Y-65042622D01*
X123663000Y-65568778D01*
X123659324Y-65606100D01*
X123663000Y-65643422D01*
X123663000Y-65643433D01*
X123673997Y-65755086D01*
X123717454Y-65898347D01*
X123731138Y-65923947D01*
X123788026Y-66030376D01*
X123859201Y-66117102D01*
X123883000Y-66146101D01*
X123911998Y-66169899D01*
X124065100Y-66323001D01*
X124065101Y-67001468D01*
X124061424Y-67038800D01*
X124065101Y-67076133D01*
X124076098Y-67187786D01*
X124080345Y-67201786D01*
X124119554Y-67331046D01*
X124190126Y-67463076D01*
X124256950Y-67544500D01*
X124285100Y-67578801D01*
X124314098Y-67602599D01*
X125484800Y-68773302D01*
X125508599Y-68802301D01*
X125624324Y-68897274D01*
X125756353Y-68967846D01*
X125899614Y-69011303D01*
X125930105Y-69014306D01*
X126467400Y-69551602D01*
X126467401Y-85421396D01*
X126451158Y-85414668D01*
X126164260Y-85357600D01*
X125871740Y-85357600D01*
X125584842Y-85414668D01*
X125314589Y-85526610D01*
X125071368Y-85689125D01*
X124864525Y-85895968D01*
X124742805Y-86078134D01*
X124673178Y-85961245D01*
X124478269Y-85745012D01*
X124244920Y-85570959D01*
X123982099Y-85445775D01*
X123834890Y-85401124D01*
X123605000Y-85522445D01*
X123605000Y-86715600D01*
X123625000Y-86715600D01*
X123625000Y-86969600D01*
X123605000Y-86969600D01*
X123605000Y-86989600D01*
X123351000Y-86989600D01*
X123351000Y-86969600D01*
X123331000Y-86969600D01*
X123331000Y-86715600D01*
X123351000Y-86715600D01*
X123351000Y-85522445D01*
X123121110Y-85401124D01*
X123022576Y-85431011D01*
X122927237Y-85288326D01*
X122783074Y-85144163D01*
X122613556Y-85030895D01*
X122425198Y-84952874D01*
X122396700Y-84947205D01*
X122396700Y-64852069D01*
X122482820Y-64898102D01*
G37*
X122482820Y-64898102D02*
X122602518Y-64934412D01*
X122727000Y-64946672D01*
X123665097Y-64946672D01*
X123663000Y-64967968D01*
X123663000Y-64967978D01*
X123659324Y-65005300D01*
X123663000Y-65042622D01*
X123663000Y-65568778D01*
X123659324Y-65606100D01*
X123663000Y-65643422D01*
X123663000Y-65643433D01*
X123673997Y-65755086D01*
X123717454Y-65898347D01*
X123731138Y-65923947D01*
X123788026Y-66030376D01*
X123859201Y-66117102D01*
X123883000Y-66146101D01*
X123911998Y-66169899D01*
X124065100Y-66323001D01*
X124065101Y-67001468D01*
X124061424Y-67038800D01*
X124065101Y-67076133D01*
X124076098Y-67187786D01*
X124080345Y-67201786D01*
X124119554Y-67331046D01*
X124190126Y-67463076D01*
X124256950Y-67544500D01*
X124285100Y-67578801D01*
X124314098Y-67602599D01*
X125484800Y-68773302D01*
X125508599Y-68802301D01*
X125624324Y-68897274D01*
X125756353Y-68967846D01*
X125899614Y-69011303D01*
X125930105Y-69014306D01*
X126467400Y-69551602D01*
X126467401Y-85421396D01*
X126451158Y-85414668D01*
X126164260Y-85357600D01*
X125871740Y-85357600D01*
X125584842Y-85414668D01*
X125314589Y-85526610D01*
X125071368Y-85689125D01*
X124864525Y-85895968D01*
X124742805Y-86078134D01*
X124673178Y-85961245D01*
X124478269Y-85745012D01*
X124244920Y-85570959D01*
X123982099Y-85445775D01*
X123834890Y-85401124D01*
X123605000Y-85522445D01*
X123605000Y-86715600D01*
X123625000Y-86715600D01*
X123625000Y-86969600D01*
X123605000Y-86969600D01*
X123605000Y-86989600D01*
X123351000Y-86989600D01*
X123351000Y-86969600D01*
X123331000Y-86969600D01*
X123331000Y-86715600D01*
X123351000Y-86715600D01*
X123351000Y-85522445D01*
X123121110Y-85401124D01*
X123022576Y-85431011D01*
X122927237Y-85288326D01*
X122783074Y-85144163D01*
X122613556Y-85030895D01*
X122425198Y-84952874D01*
X122396700Y-84947205D01*
X122396700Y-64852069D01*
X122482820Y-64898102D01*
G36*
X123543297Y-56418586D02*
G01*
X123564256Y-56487678D01*
X123586754Y-56561846D01*
X123657326Y-56693876D01*
X123723095Y-56774015D01*
X123752300Y-56809601D01*
X123781298Y-56833399D01*
X123794000Y-56846101D01*
X123794000Y-57068650D01*
X123952750Y-57227400D01*
X124075357Y-57221204D01*
X124195949Y-57187982D01*
X124239044Y-57166353D01*
X124313714Y-57189003D01*
X124336944Y-57191291D01*
X124433506Y-57270537D01*
X124543820Y-57329502D01*
X124663518Y-57365812D01*
X124788000Y-57378072D01*
X124940865Y-57378072D01*
X124839302Y-57398274D01*
X124650944Y-57476295D01*
X124481426Y-57589563D01*
X124337263Y-57733726D01*
X124331680Y-57742082D01*
X124284256Y-57710395D01*
X124095898Y-57632374D01*
X123895939Y-57592600D01*
X123692061Y-57592600D01*
X123492102Y-57632374D01*
X123303744Y-57710395D01*
X123134226Y-57823663D01*
X122990063Y-57967826D01*
X122876795Y-58137344D01*
X122798774Y-58325702D01*
X122759000Y-58525661D01*
X122759000Y-58729539D01*
X122798774Y-58929498D01*
X122821000Y-58983156D01*
X122821000Y-59357200D01*
X122841000Y-59357200D01*
X122841000Y-59603200D01*
X122821000Y-59603200D01*
X122821000Y-59627200D01*
X122567000Y-59627200D01*
X122567000Y-59603200D01*
X121917750Y-59603200D01*
X121759000Y-59761950D01*
X121771594Y-59870724D01*
X121810968Y-59989449D01*
X121872748Y-60098212D01*
X121954559Y-60192831D01*
X122053258Y-60269673D01*
X122165051Y-60325782D01*
X122269870Y-60354659D01*
X122236834Y-60394913D01*
X122126956Y-60321495D01*
X121938598Y-60243474D01*
X121738639Y-60203700D01*
X121534761Y-60203700D01*
X121334802Y-60243474D01*
X121146444Y-60321495D01*
X120976926Y-60434763D01*
X120832763Y-60578926D01*
X120719495Y-60748444D01*
X120641474Y-60936802D01*
X120601700Y-61136761D01*
X120601700Y-61315689D01*
X120465274Y-61179263D01*
X120295756Y-61065995D01*
X120107398Y-60987974D01*
X119907439Y-60948200D01*
X119703561Y-60948200D01*
X119503602Y-60987974D01*
X119315244Y-61065995D01*
X119145726Y-61179263D01*
X119001563Y-61323426D01*
X118888295Y-61492944D01*
X118810274Y-61681302D01*
X118770500Y-61881261D01*
X118770500Y-62085139D01*
X118810274Y-62285098D01*
X118888295Y-62473456D01*
X119001563Y-62642974D01*
X119045500Y-62686911D01*
X119045501Y-65613498D01*
X116301965Y-62869964D01*
X116385156Y-62835505D01*
X116554674Y-62722237D01*
X116698837Y-62578074D01*
X116812105Y-62408556D01*
X116890126Y-62220198D01*
X116929900Y-62020239D01*
X116929900Y-61816361D01*
X116890126Y-61616402D01*
X116812105Y-61428044D01*
X116811806Y-61427596D01*
X116911501Y-61327900D01*
X116973639Y-61327900D01*
X117173598Y-61288126D01*
X117361956Y-61210105D01*
X117531474Y-61096837D01*
X117675637Y-60952674D01*
X117788905Y-60783156D01*
X117866926Y-60594798D01*
X117906700Y-60394839D01*
X117906700Y-60190961D01*
X117866926Y-59991002D01*
X117788905Y-59802644D01*
X117675637Y-59633126D01*
X117531474Y-59488963D01*
X117361956Y-59375695D01*
X117173598Y-59297674D01*
X116973639Y-59257900D01*
X116769761Y-59257900D01*
X116569802Y-59297674D01*
X116540020Y-59310010D01*
X116525681Y-59198450D01*
X121759000Y-59198450D01*
X121917750Y-59357200D01*
X122567000Y-59357200D01*
X122567000Y-58753950D01*
X122408250Y-58595200D01*
X122285643Y-58601396D01*
X122165051Y-58634618D01*
X122053258Y-58690727D01*
X121954559Y-58767569D01*
X121872748Y-58862188D01*
X121810968Y-58970951D01*
X121771594Y-59089676D01*
X121759000Y-59198450D01*
X116525681Y-59198450D01*
X116496985Y-58975202D01*
X116381846Y-58632567D01*
X116262836Y-58409914D01*
X115977980Y-58290026D01*
X114879605Y-59388400D01*
X114893748Y-59402542D01*
X114714142Y-59582148D01*
X114700000Y-59568005D01*
X114685858Y-59582148D01*
X114506252Y-59402542D01*
X114520395Y-59388400D01*
X114506252Y-59374258D01*
X114685858Y-59194652D01*
X114700000Y-59208795D01*
X115798374Y-58110420D01*
X115678486Y-57825564D01*
X115354790Y-57664701D01*
X115265310Y-57640431D01*
X115569199Y-57514556D01*
X115869744Y-57313738D01*
X116125338Y-57058144D01*
X116326156Y-56757599D01*
X116377601Y-56633400D01*
X118287680Y-56633400D01*
X118311463Y-56677894D01*
X118390815Y-56774585D01*
X118487506Y-56853937D01*
X118597820Y-56912902D01*
X118717518Y-56949212D01*
X118842000Y-56961472D01*
X120042000Y-56961472D01*
X120166482Y-56949212D01*
X120286180Y-56912902D01*
X120396494Y-56853937D01*
X120493185Y-56774585D01*
X120542000Y-56715104D01*
X120590815Y-56774585D01*
X120687506Y-56853937D01*
X120797820Y-56912902D01*
X120917518Y-56949212D01*
X121042000Y-56961472D01*
X122242000Y-56961472D01*
X122366482Y-56949212D01*
X122486180Y-56912902D01*
X122596494Y-56853937D01*
X122693185Y-56774585D01*
X122742465Y-56714537D01*
X122744594Y-56732924D01*
X122783968Y-56851649D01*
X122845748Y-56960412D01*
X122927559Y-57055031D01*
X123026258Y-57131873D01*
X123138051Y-57187982D01*
X123258643Y-57221204D01*
X123381250Y-57227400D01*
X123540000Y-57068650D01*
X123540000Y-56465400D01*
X123520000Y-56465400D01*
X123520000Y-56330472D01*
X123534618Y-56330472D01*
X123543297Y-56418586D01*
G37*
X123543297Y-56418586D02*
X123564256Y-56487678D01*
X123586754Y-56561846D01*
X123657326Y-56693876D01*
X123723095Y-56774015D01*
X123752300Y-56809601D01*
X123781298Y-56833399D01*
X123794000Y-56846101D01*
X123794000Y-57068650D01*
X123952750Y-57227400D01*
X124075357Y-57221204D01*
X124195949Y-57187982D01*
X124239044Y-57166353D01*
X124313714Y-57189003D01*
X124336944Y-57191291D01*
X124433506Y-57270537D01*
X124543820Y-57329502D01*
X124663518Y-57365812D01*
X124788000Y-57378072D01*
X124940865Y-57378072D01*
X124839302Y-57398274D01*
X124650944Y-57476295D01*
X124481426Y-57589563D01*
X124337263Y-57733726D01*
X124331680Y-57742082D01*
X124284256Y-57710395D01*
X124095898Y-57632374D01*
X123895939Y-57592600D01*
X123692061Y-57592600D01*
X123492102Y-57632374D01*
X123303744Y-57710395D01*
X123134226Y-57823663D01*
X122990063Y-57967826D01*
X122876795Y-58137344D01*
X122798774Y-58325702D01*
X122759000Y-58525661D01*
X122759000Y-58729539D01*
X122798774Y-58929498D01*
X122821000Y-58983156D01*
X122821000Y-59357200D01*
X122841000Y-59357200D01*
X122841000Y-59603200D01*
X122821000Y-59603200D01*
X122821000Y-59627200D01*
X122567000Y-59627200D01*
X122567000Y-59603200D01*
X121917750Y-59603200D01*
X121759000Y-59761950D01*
X121771594Y-59870724D01*
X121810968Y-59989449D01*
X121872748Y-60098212D01*
X121954559Y-60192831D01*
X122053258Y-60269673D01*
X122165051Y-60325782D01*
X122269870Y-60354659D01*
X122236834Y-60394913D01*
X122126956Y-60321495D01*
X121938598Y-60243474D01*
X121738639Y-60203700D01*
X121534761Y-60203700D01*
X121334802Y-60243474D01*
X121146444Y-60321495D01*
X120976926Y-60434763D01*
X120832763Y-60578926D01*
X120719495Y-60748444D01*
X120641474Y-60936802D01*
X120601700Y-61136761D01*
X120601700Y-61315689D01*
X120465274Y-61179263D01*
X120295756Y-61065995D01*
X120107398Y-60987974D01*
X119907439Y-60948200D01*
X119703561Y-60948200D01*
X119503602Y-60987974D01*
X119315244Y-61065995D01*
X119145726Y-61179263D01*
X119001563Y-61323426D01*
X118888295Y-61492944D01*
X118810274Y-61681302D01*
X118770500Y-61881261D01*
X118770500Y-62085139D01*
X118810274Y-62285098D01*
X118888295Y-62473456D01*
X119001563Y-62642974D01*
X119045500Y-62686911D01*
X119045501Y-65613498D01*
X116301965Y-62869964D01*
X116385156Y-62835505D01*
X116554674Y-62722237D01*
X116698837Y-62578074D01*
X116812105Y-62408556D01*
X116890126Y-62220198D01*
X116929900Y-62020239D01*
X116929900Y-61816361D01*
X116890126Y-61616402D01*
X116812105Y-61428044D01*
X116811806Y-61427596D01*
X116911501Y-61327900D01*
X116973639Y-61327900D01*
X117173598Y-61288126D01*
X117361956Y-61210105D01*
X117531474Y-61096837D01*
X117675637Y-60952674D01*
X117788905Y-60783156D01*
X117866926Y-60594798D01*
X117906700Y-60394839D01*
X117906700Y-60190961D01*
X117866926Y-59991002D01*
X117788905Y-59802644D01*
X117675637Y-59633126D01*
X117531474Y-59488963D01*
X117361956Y-59375695D01*
X117173598Y-59297674D01*
X116973639Y-59257900D01*
X116769761Y-59257900D01*
X116569802Y-59297674D01*
X116540020Y-59310010D01*
X116525681Y-59198450D01*
X121759000Y-59198450D01*
X121917750Y-59357200D01*
X122567000Y-59357200D01*
X122567000Y-58753950D01*
X122408250Y-58595200D01*
X122285643Y-58601396D01*
X122165051Y-58634618D01*
X122053258Y-58690727D01*
X121954559Y-58767569D01*
X121872748Y-58862188D01*
X121810968Y-58970951D01*
X121771594Y-59089676D01*
X121759000Y-59198450D01*
X116525681Y-59198450D01*
X116496985Y-58975202D01*
X116381846Y-58632567D01*
X116262836Y-58409914D01*
X115977980Y-58290026D01*
X114879605Y-59388400D01*
X114893748Y-59402542D01*
X114714142Y-59582148D01*
X114700000Y-59568005D01*
X114685858Y-59582148D01*
X114506252Y-59402542D01*
X114520395Y-59388400D01*
X114506252Y-59374258D01*
X114685858Y-59194652D01*
X114700000Y-59208795D01*
X115798374Y-58110420D01*
X115678486Y-57825564D01*
X115354790Y-57664701D01*
X115265310Y-57640431D01*
X115569199Y-57514556D01*
X115869744Y-57313738D01*
X116125338Y-57058144D01*
X116326156Y-56757599D01*
X116377601Y-56633400D01*
X118287680Y-56633400D01*
X118311463Y-56677894D01*
X118390815Y-56774585D01*
X118487506Y-56853937D01*
X118597820Y-56912902D01*
X118717518Y-56949212D01*
X118842000Y-56961472D01*
X120042000Y-56961472D01*
X120166482Y-56949212D01*
X120286180Y-56912902D01*
X120396494Y-56853937D01*
X120493185Y-56774585D01*
X120542000Y-56715104D01*
X120590815Y-56774585D01*
X120687506Y-56853937D01*
X120797820Y-56912902D01*
X120917518Y-56949212D01*
X121042000Y-56961472D01*
X122242000Y-56961472D01*
X122366482Y-56949212D01*
X122486180Y-56912902D01*
X122596494Y-56853937D01*
X122693185Y-56774585D01*
X122742465Y-56714537D01*
X122744594Y-56732924D01*
X122783968Y-56851649D01*
X122845748Y-56960412D01*
X122927559Y-57055031D01*
X123026258Y-57131873D01*
X123138051Y-57187982D01*
X123258643Y-57221204D01*
X123381250Y-57227400D01*
X123540000Y-57068650D01*
X123540000Y-56465400D01*
X123520000Y-56465400D01*
X123520000Y-56330472D01*
X123534618Y-56330472D01*
X123543297Y-56418586D01*
G36*
X128518000Y-61156600D02*
G01*
X128538000Y-61156600D01*
X128538000Y-61410600D01*
X128518000Y-61410600D01*
X128518000Y-61430528D01*
X128264000Y-61430528D01*
X128264000Y-61410600D01*
X128244000Y-61410600D01*
X128244000Y-61156600D01*
X128264000Y-61156600D01*
X128264000Y-61136600D01*
X128518000Y-61136600D01*
X128518000Y-61156600D01*
G37*
X128518000Y-61156600D02*
X128538000Y-61156600D01*
X128538000Y-61410600D01*
X128518000Y-61410600D01*
X128518000Y-61430528D01*
X128264000Y-61430528D01*
X128264000Y-61410600D01*
X128244000Y-61410600D01*
X128244000Y-61156600D01*
X128264000Y-61156600D01*
X128264000Y-61136600D01*
X128518000Y-61136600D01*
X128518000Y-61156600D01*
G36*
X123489000Y-61156600D02*
G01*
X123509000Y-61156600D01*
X123509000Y-61410600D01*
X123489000Y-61410600D01*
X123489000Y-61430528D01*
X123235000Y-61430528D01*
X123235000Y-61410600D01*
X123215000Y-61410600D01*
X123215000Y-61156600D01*
X123235000Y-61156600D01*
X123235000Y-61136600D01*
X123489000Y-61136600D01*
X123489000Y-61156600D01*
G37*
X123489000Y-61156600D02*
X123509000Y-61156600D01*
X123509000Y-61410600D01*
X123489000Y-61410600D01*
X123489000Y-61430528D01*
X123235000Y-61430528D01*
X123235000Y-61410600D01*
X123215000Y-61410600D01*
X123215000Y-61156600D01*
X123235000Y-61156600D01*
X123235000Y-61136600D01*
X123489000Y-61136600D01*
X123489000Y-61156600D01*
G36*
X133649000Y-61156600D02*
G01*
X133669000Y-61156600D01*
X133669000Y-61410600D01*
X133649000Y-61410600D01*
X133649000Y-61430528D01*
X133395000Y-61430528D01*
X133395000Y-61410600D01*
X133375000Y-61410600D01*
X133375000Y-61156600D01*
X133395000Y-61156600D01*
X133395000Y-61136600D01*
X133649000Y-61136600D01*
X133649000Y-61156600D01*
G37*
X133649000Y-61156600D02*
X133669000Y-61156600D01*
X133669000Y-61410600D01*
X133649000Y-61410600D01*
X133649000Y-61430528D01*
X133395000Y-61430528D01*
X133395000Y-61410600D01*
X133375000Y-61410600D01*
X133375000Y-61156600D01*
X133395000Y-61156600D01*
X133395000Y-61136600D01*
X133649000Y-61136600D01*
X133649000Y-61156600D01*
G36*
X150824226Y-59639337D02*
G01*
X150843201Y-59652015D01*
X150843200Y-60282603D01*
X150827202Y-60302097D01*
X150827201Y-60302098D01*
X150756026Y-60388824D01*
X150685454Y-60520854D01*
X150673918Y-60558886D01*
X150641997Y-60664114D01*
X150634634Y-60738866D01*
X150601419Y-60696642D01*
X150506389Y-60615307D01*
X150397318Y-60554074D01*
X150303900Y-60523612D01*
X150303900Y-60356461D01*
X150264126Y-60156502D01*
X150242843Y-60105120D01*
X150277632Y-60081875D01*
X150484475Y-59875032D01*
X150646990Y-59631811D01*
X150696697Y-59511808D01*
X150824226Y-59639337D01*
G37*
X150824226Y-59639337D02*
X150843201Y-59652015D01*
X150843200Y-60282603D01*
X150827202Y-60302097D01*
X150827201Y-60302098D01*
X150756026Y-60388824D01*
X150685454Y-60520854D01*
X150673918Y-60558886D01*
X150641997Y-60664114D01*
X150634634Y-60738866D01*
X150601419Y-60696642D01*
X150506389Y-60615307D01*
X150397318Y-60554074D01*
X150303900Y-60523612D01*
X150303900Y-60356461D01*
X150264126Y-60156502D01*
X150242843Y-60105120D01*
X150277632Y-60081875D01*
X150484475Y-59875032D01*
X150646990Y-59631811D01*
X150696697Y-59511808D01*
X150824226Y-59639337D01*
G36*
X129565454Y-60277253D02*
G01*
X129526093Y-60407010D01*
X129477185Y-60347415D01*
X129433463Y-60311533D01*
X129528494Y-60260737D01*
X129610064Y-60193794D01*
X129565454Y-60277253D01*
G37*
X129565454Y-60277253D02*
X129526093Y-60407010D01*
X129477185Y-60347415D01*
X129433463Y-60311533D01*
X129528494Y-60260737D01*
X129610064Y-60193794D01*
X129565454Y-60277253D01*
G36*
X129731726Y-58304637D02*
G01*
X129901244Y-58417905D01*
X130089602Y-58495926D01*
X130289561Y-58535700D01*
X130351698Y-58535700D01*
X130460501Y-58644502D01*
X130460500Y-59432798D01*
X130051374Y-59841925D01*
X129978753Y-59863954D01*
X129846724Y-59934526D01*
X129736416Y-60025053D01*
X129763502Y-59974380D01*
X129799812Y-59854682D01*
X129812072Y-59730200D01*
X129812072Y-59230200D01*
X129799812Y-59105718D01*
X129763502Y-58986020D01*
X129704537Y-58875706D01*
X129634000Y-58789756D01*
X129634000Y-58206911D01*
X129731726Y-58304637D01*
G37*
X129731726Y-58304637D02*
X129901244Y-58417905D01*
X130089602Y-58495926D01*
X130289561Y-58535700D01*
X130351698Y-58535700D01*
X130460501Y-58644502D01*
X130460500Y-59432798D01*
X130051374Y-59841925D01*
X129978753Y-59863954D01*
X129846724Y-59934526D01*
X129736416Y-60025053D01*
X129763502Y-59974380D01*
X129799812Y-59854682D01*
X129812072Y-59730200D01*
X129812072Y-59230200D01*
X129799812Y-59105718D01*
X129763502Y-58986020D01*
X129704537Y-58875706D01*
X129634000Y-58789756D01*
X129634000Y-58206911D01*
X129731726Y-58304637D01*
G36*
X127395302Y-52897097D02*
G01*
X127366299Y-52920899D01*
X127320416Y-52976808D01*
X127271326Y-53036624D01*
X127223994Y-53125176D01*
X127200754Y-53168654D01*
X127157297Y-53311915D01*
X127146300Y-53423568D01*
X127146300Y-53423578D01*
X127142624Y-53460900D01*
X127146300Y-53498223D01*
X127146300Y-53781289D01*
X127102363Y-53825226D01*
X126989095Y-53994744D01*
X126911074Y-54183102D01*
X126871300Y-54383061D01*
X126871300Y-54586939D01*
X126911074Y-54786898D01*
X126989095Y-54975256D01*
X127102363Y-55144774D01*
X127246526Y-55288937D01*
X127416044Y-55402205D01*
X127604402Y-55480226D01*
X127804361Y-55520000D01*
X128008239Y-55520000D01*
X128208198Y-55480226D01*
X128396556Y-55402205D01*
X128566074Y-55288937D01*
X128710237Y-55144774D01*
X128823505Y-54975256D01*
X128901526Y-54786898D01*
X128941300Y-54586939D01*
X128941300Y-54383061D01*
X128901526Y-54183102D01*
X128823505Y-53994744D01*
X128710237Y-53825226D01*
X128666300Y-53781289D01*
X128666300Y-53775701D01*
X128981102Y-53460900D01*
X130337099Y-53460900D01*
X130929300Y-54053102D01*
X130929300Y-56615263D01*
X130881756Y-56583495D01*
X130693398Y-56505474D01*
X130629606Y-56492785D01*
X130590126Y-56294302D01*
X130512105Y-56105944D01*
X130398837Y-55936426D01*
X130254674Y-55792263D01*
X130085156Y-55678995D01*
X129896798Y-55600974D01*
X129696839Y-55561200D01*
X129492961Y-55561200D01*
X129293002Y-55600974D01*
X129104644Y-55678995D01*
X128935126Y-55792263D01*
X128790963Y-55936426D01*
X128677695Y-56105944D01*
X128599674Y-56294302D01*
X128559900Y-56494261D01*
X128559900Y-56556399D01*
X128362998Y-56753301D01*
X128334000Y-56777099D01*
X128310202Y-56806097D01*
X128310201Y-56806098D01*
X128239026Y-56892824D01*
X128168454Y-57024854D01*
X128141758Y-57112863D01*
X128124998Y-57168114D01*
X128114136Y-57278400D01*
X128110324Y-57317100D01*
X128114001Y-57354432D01*
X128114000Y-58597942D01*
X128059750Y-58595200D01*
X127901000Y-58753950D01*
X127901000Y-59357200D01*
X127921000Y-59357200D01*
X127921000Y-59603200D01*
X127901000Y-59603200D01*
X127901000Y-59627200D01*
X127762911Y-59627200D01*
X127650374Y-59514663D01*
X127627000Y-59499045D01*
X127627000Y-59357200D01*
X127647000Y-59357200D01*
X127647000Y-58753950D01*
X127488250Y-58595200D01*
X127365643Y-58601396D01*
X127245051Y-58634618D01*
X127133258Y-58690727D01*
X127034559Y-58767569D01*
X126952748Y-58862188D01*
X126890968Y-58970951D01*
X126854429Y-59081128D01*
X126799637Y-58999126D01*
X126655474Y-58854963D01*
X126485956Y-58741695D01*
X126297598Y-58663674D01*
X126148630Y-58634043D01*
X126176200Y-58495439D01*
X126176200Y-58291561D01*
X126136426Y-58091602D01*
X126058405Y-57903244D01*
X125945137Y-57733726D01*
X125800974Y-57589563D01*
X125631456Y-57476295D01*
X125443098Y-57398274D01*
X125323806Y-57374546D01*
X125412482Y-57365812D01*
X125532180Y-57329502D01*
X125642494Y-57270537D01*
X125739056Y-57191291D01*
X125762286Y-57189003D01*
X125905547Y-57145546D01*
X126037576Y-57074974D01*
X126153301Y-56980001D01*
X126248274Y-56864276D01*
X126318846Y-56732247D01*
X126362303Y-56588986D01*
X126373300Y-56477333D01*
X126376977Y-56440000D01*
X126373300Y-56402667D01*
X126373300Y-54861523D01*
X126376976Y-54824200D01*
X126373300Y-54786877D01*
X126373300Y-54786867D01*
X126362303Y-54675214D01*
X126318846Y-54531953D01*
X126317000Y-54528499D01*
X126248274Y-54399923D01*
X126177099Y-54313197D01*
X126153301Y-54284199D01*
X126124304Y-54260402D01*
X125644240Y-53780339D01*
X125656012Y-53773652D01*
X125750631Y-53691841D01*
X125827473Y-53593142D01*
X125883582Y-53481349D01*
X125916804Y-53360757D01*
X125923000Y-53238150D01*
X125764250Y-53079400D01*
X125161000Y-53079400D01*
X125161000Y-53099400D01*
X124915000Y-53099400D01*
X124915000Y-53079400D01*
X124891000Y-53079400D01*
X124891000Y-52825400D01*
X124915000Y-52825400D01*
X124915000Y-52805400D01*
X125161000Y-52805400D01*
X125161000Y-52825400D01*
X125764250Y-52825400D01*
X125923000Y-52666650D01*
X125920258Y-52612400D01*
X127679999Y-52612400D01*
X127395302Y-52897097D01*
G37*
X127395302Y-52897097D02*
X127366299Y-52920899D01*
X127320416Y-52976808D01*
X127271326Y-53036624D01*
X127223994Y-53125176D01*
X127200754Y-53168654D01*
X127157297Y-53311915D01*
X127146300Y-53423568D01*
X127146300Y-53423578D01*
X127142624Y-53460900D01*
X127146300Y-53498223D01*
X127146300Y-53781289D01*
X127102363Y-53825226D01*
X126989095Y-53994744D01*
X126911074Y-54183102D01*
X126871300Y-54383061D01*
X126871300Y-54586939D01*
X126911074Y-54786898D01*
X126989095Y-54975256D01*
X127102363Y-55144774D01*
X127246526Y-55288937D01*
X127416044Y-55402205D01*
X127604402Y-55480226D01*
X127804361Y-55520000D01*
X128008239Y-55520000D01*
X128208198Y-55480226D01*
X128396556Y-55402205D01*
X128566074Y-55288937D01*
X128710237Y-55144774D01*
X128823505Y-54975256D01*
X128901526Y-54786898D01*
X128941300Y-54586939D01*
X128941300Y-54383061D01*
X128901526Y-54183102D01*
X128823505Y-53994744D01*
X128710237Y-53825226D01*
X128666300Y-53781289D01*
X128666300Y-53775701D01*
X128981102Y-53460900D01*
X130337099Y-53460900D01*
X130929300Y-54053102D01*
X130929300Y-56615263D01*
X130881756Y-56583495D01*
X130693398Y-56505474D01*
X130629606Y-56492785D01*
X130590126Y-56294302D01*
X130512105Y-56105944D01*
X130398837Y-55936426D01*
X130254674Y-55792263D01*
X130085156Y-55678995D01*
X129896798Y-55600974D01*
X129696839Y-55561200D01*
X129492961Y-55561200D01*
X129293002Y-55600974D01*
X129104644Y-55678995D01*
X128935126Y-55792263D01*
X128790963Y-55936426D01*
X128677695Y-56105944D01*
X128599674Y-56294302D01*
X128559900Y-56494261D01*
X128559900Y-56556399D01*
X128362998Y-56753301D01*
X128334000Y-56777099D01*
X128310202Y-56806097D01*
X128310201Y-56806098D01*
X128239026Y-56892824D01*
X128168454Y-57024854D01*
X128141758Y-57112863D01*
X128124998Y-57168114D01*
X128114136Y-57278400D01*
X128110324Y-57317100D01*
X128114001Y-57354432D01*
X128114000Y-58597942D01*
X128059750Y-58595200D01*
X127901000Y-58753950D01*
X127901000Y-59357200D01*
X127921000Y-59357200D01*
X127921000Y-59603200D01*
X127901000Y-59603200D01*
X127901000Y-59627200D01*
X127762911Y-59627200D01*
X127650374Y-59514663D01*
X127627000Y-59499045D01*
X127627000Y-59357200D01*
X127647000Y-59357200D01*
X127647000Y-58753950D01*
X127488250Y-58595200D01*
X127365643Y-58601396D01*
X127245051Y-58634618D01*
X127133258Y-58690727D01*
X127034559Y-58767569D01*
X126952748Y-58862188D01*
X126890968Y-58970951D01*
X126854429Y-59081128D01*
X126799637Y-58999126D01*
X126655474Y-58854963D01*
X126485956Y-58741695D01*
X126297598Y-58663674D01*
X126148630Y-58634043D01*
X126176200Y-58495439D01*
X126176200Y-58291561D01*
X126136426Y-58091602D01*
X126058405Y-57903244D01*
X125945137Y-57733726D01*
X125800974Y-57589563D01*
X125631456Y-57476295D01*
X125443098Y-57398274D01*
X125323806Y-57374546D01*
X125412482Y-57365812D01*
X125532180Y-57329502D01*
X125642494Y-57270537D01*
X125739056Y-57191291D01*
X125762286Y-57189003D01*
X125905547Y-57145546D01*
X126037576Y-57074974D01*
X126153301Y-56980001D01*
X126248274Y-56864276D01*
X126318846Y-56732247D01*
X126362303Y-56588986D01*
X126373300Y-56477333D01*
X126376977Y-56440000D01*
X126373300Y-56402667D01*
X126373300Y-54861523D01*
X126376976Y-54824200D01*
X126373300Y-54786877D01*
X126373300Y-54786867D01*
X126362303Y-54675214D01*
X126318846Y-54531953D01*
X126317000Y-54528499D01*
X126248274Y-54399923D01*
X126177099Y-54313197D01*
X126153301Y-54284199D01*
X126124304Y-54260402D01*
X125644240Y-53780339D01*
X125656012Y-53773652D01*
X125750631Y-53691841D01*
X125827473Y-53593142D01*
X125883582Y-53481349D01*
X125916804Y-53360757D01*
X125923000Y-53238150D01*
X125764250Y-53079400D01*
X125161000Y-53079400D01*
X125161000Y-53099400D01*
X124915000Y-53099400D01*
X124915000Y-53079400D01*
X124891000Y-53079400D01*
X124891000Y-52825400D01*
X124915000Y-52825400D01*
X124915000Y-52805400D01*
X125161000Y-52805400D01*
X125161000Y-52825400D01*
X125764250Y-52825400D01*
X125923000Y-52666650D01*
X125920258Y-52612400D01*
X127679999Y-52612400D01*
X127395302Y-52897097D01*
G36*
X136740883Y-57575602D02*
G01*
X136884144Y-57619059D01*
X136904233Y-57621038D01*
X137810396Y-58527201D01*
X137834195Y-58556200D01*
X137863193Y-58579998D01*
X137949919Y-58651173D01*
X138072179Y-58716523D01*
X138081949Y-58721745D01*
X138225210Y-58765202D01*
X138336863Y-58776199D01*
X138336873Y-58776199D01*
X138374196Y-58779875D01*
X138411519Y-58776199D01*
X138441751Y-58776199D01*
X138345000Y-58872950D01*
X138357594Y-58981724D01*
X138396968Y-59100449D01*
X138453970Y-59200800D01*
X138412812Y-59273258D01*
X136685612Y-57546059D01*
X136740883Y-57575602D01*
G37*
X136740883Y-57575602D02*
X136884144Y-57619059D01*
X136904233Y-57621038D01*
X137810396Y-58527201D01*
X137834195Y-58556200D01*
X137863193Y-58579998D01*
X137949919Y-58651173D01*
X138072179Y-58716523D01*
X138081949Y-58721745D01*
X138225210Y-58765202D01*
X138336863Y-58776199D01*
X138336873Y-58776199D01*
X138374196Y-58779875D01*
X138411519Y-58776199D01*
X138441751Y-58776199D01*
X138345000Y-58872950D01*
X138357594Y-58981724D01*
X138396968Y-59100449D01*
X138453970Y-59200800D01*
X138412812Y-59273258D01*
X136685612Y-57546059D01*
X136740883Y-57575602D01*
G36*
X151511674Y-55887082D02*
G01*
X151472896Y-56006003D01*
X151461000Y-56111650D01*
X151619750Y-56270400D01*
X152419000Y-56270400D01*
X152419000Y-56246400D01*
X152511599Y-56246400D01*
X152693000Y-56427802D01*
X152693000Y-56516400D01*
X152673000Y-56516400D01*
X152673000Y-56540400D01*
X152419000Y-56540400D01*
X152419000Y-56516400D01*
X151619750Y-56516400D01*
X151461000Y-56675150D01*
X151472896Y-56780797D01*
X151511674Y-56899718D01*
X151572907Y-57008789D01*
X151654242Y-57103819D01*
X151704425Y-57143295D01*
X151644815Y-57192215D01*
X151565463Y-57288906D01*
X151506498Y-57399220D01*
X151470188Y-57518918D01*
X151457928Y-57643400D01*
X151457928Y-57800400D01*
X151382061Y-57800400D01*
X151182102Y-57840174D01*
X150993744Y-57918195D01*
X150824226Y-58031463D01*
X150680063Y-58175626D01*
X150647024Y-58225072D01*
X150646990Y-58224989D01*
X150484475Y-57981768D01*
X150277632Y-57774925D01*
X150133172Y-57678400D01*
X150277632Y-57581875D01*
X150484475Y-57375032D01*
X150646990Y-57131811D01*
X150758932Y-56861558D01*
X150816000Y-56574660D01*
X150816000Y-56282140D01*
X150758932Y-55995242D01*
X150689865Y-55828500D01*
X151544562Y-55828500D01*
X151511674Y-55887082D01*
G37*
X151511674Y-55887082D02*
X151472896Y-56006003D01*
X151461000Y-56111650D01*
X151619750Y-56270400D01*
X152419000Y-56270400D01*
X152419000Y-56246400D01*
X152511599Y-56246400D01*
X152693000Y-56427802D01*
X152693000Y-56516400D01*
X152673000Y-56516400D01*
X152673000Y-56540400D01*
X152419000Y-56540400D01*
X152419000Y-56516400D01*
X151619750Y-56516400D01*
X151461000Y-56675150D01*
X151472896Y-56780797D01*
X151511674Y-56899718D01*
X151572907Y-57008789D01*
X151654242Y-57103819D01*
X151704425Y-57143295D01*
X151644815Y-57192215D01*
X151565463Y-57288906D01*
X151506498Y-57399220D01*
X151470188Y-57518918D01*
X151457928Y-57643400D01*
X151457928Y-57800400D01*
X151382061Y-57800400D01*
X151182102Y-57840174D01*
X150993744Y-57918195D01*
X150824226Y-58031463D01*
X150680063Y-58175626D01*
X150647024Y-58225072D01*
X150646990Y-58224989D01*
X150484475Y-57981768D01*
X150277632Y-57774925D01*
X150133172Y-57678400D01*
X150277632Y-57581875D01*
X150484475Y-57375032D01*
X150646990Y-57131811D01*
X150758932Y-56861558D01*
X150816000Y-56574660D01*
X150816000Y-56282140D01*
X150758932Y-55995242D01*
X150689865Y-55828500D01*
X151544562Y-55828500D01*
X151511674Y-55887082D01*
G36*
X139393000Y-55488400D02*
G01*
X139373000Y-55488400D01*
X139373000Y-55900150D01*
X139364000Y-55909150D01*
X139364000Y-56468800D01*
X139110000Y-56468800D01*
X139110000Y-56100650D01*
X139119000Y-56091650D01*
X139119000Y-55488400D01*
X139099000Y-55488400D01*
X139099000Y-55478251D01*
X139393000Y-55478251D01*
X139393000Y-55488400D01*
G37*
X139393000Y-55488400D02*
X139373000Y-55488400D01*
X139373000Y-55900150D01*
X139364000Y-55909150D01*
X139364000Y-56468800D01*
X139110000Y-56468800D01*
X139110000Y-56100650D01*
X139119000Y-56091650D01*
X139119000Y-55488400D01*
X139099000Y-55488400D01*
X139099000Y-55478251D01*
X139393000Y-55478251D01*
X139393000Y-55488400D01*
G36*
X154502001Y-56208800D02*
G01*
X154426788Y-56208800D01*
X154424603Y-56186614D01*
X154381146Y-56043353D01*
X154375292Y-56032401D01*
X154324000Y-55936441D01*
X154324000Y-55667150D01*
X154165250Y-55508400D01*
X154014195Y-55505464D01*
X153927034Y-55512232D01*
X153303981Y-54889179D01*
X153339447Y-54871155D01*
X153437758Y-54793819D01*
X153498500Y-54722849D01*
X153559242Y-54793819D01*
X153657553Y-54871155D01*
X153769063Y-54927825D01*
X153889486Y-54961652D01*
X154014195Y-54971336D01*
X154165250Y-54968400D01*
X154324000Y-54809650D01*
X154324000Y-54206400D01*
X154304000Y-54206400D01*
X154304000Y-54086234D01*
X154322622Y-54084400D01*
X154322633Y-54084400D01*
X154434286Y-54073403D01*
X154502000Y-54052862D01*
X154502001Y-56208800D01*
G37*
X154502001Y-56208800D02*
X154426788Y-56208800D01*
X154424603Y-56186614D01*
X154381146Y-56043353D01*
X154375292Y-56032401D01*
X154324000Y-55936441D01*
X154324000Y-55667150D01*
X154165250Y-55508400D01*
X154014195Y-55505464D01*
X153927034Y-55512232D01*
X153303981Y-54889179D01*
X153339447Y-54871155D01*
X153437758Y-54793819D01*
X153498500Y-54722849D01*
X153559242Y-54793819D01*
X153657553Y-54871155D01*
X153769063Y-54927825D01*
X153889486Y-54961652D01*
X154014195Y-54971336D01*
X154165250Y-54968400D01*
X154324000Y-54809650D01*
X154324000Y-54206400D01*
X154304000Y-54206400D01*
X154304000Y-54086234D01*
X154322622Y-54084400D01*
X154322633Y-54084400D01*
X154434286Y-54073403D01*
X154502000Y-54052862D01*
X154502001Y-56208800D01*
G36*
X138311000Y-55492402D02*
G01*
X138465748Y-55492402D01*
X138311000Y-55647150D01*
X138323594Y-55755924D01*
X138352564Y-55843277D01*
X137987537Y-55478251D01*
X138311000Y-55478251D01*
X138311000Y-55492402D01*
G37*
X138311000Y-55492402D02*
X138465748Y-55492402D01*
X138311000Y-55647150D01*
X138323594Y-55755924D01*
X138352564Y-55843277D01*
X137987537Y-55478251D01*
X138311000Y-55478251D01*
X138311000Y-55492402D01*
G36*
X118337463Y-53215694D02*
G01*
X118416815Y-53312385D01*
X118513506Y-53391737D01*
X118623820Y-53450702D01*
X118743518Y-53487012D01*
X118868000Y-53499272D01*
X120068000Y-53499272D01*
X120192482Y-53487012D01*
X120312180Y-53450702D01*
X120422494Y-53391737D01*
X120519185Y-53312385D01*
X120568000Y-53252904D01*
X120616815Y-53312385D01*
X120713506Y-53391737D01*
X120823820Y-53450702D01*
X120943518Y-53487012D01*
X121068000Y-53499272D01*
X122166026Y-53499272D01*
X121636081Y-54029218D01*
X121615376Y-54012226D01*
X121483347Y-53941654D01*
X121340086Y-53898197D01*
X121228433Y-53887200D01*
X121228422Y-53887200D01*
X121191100Y-53883524D01*
X121153778Y-53887200D01*
X119801111Y-53887200D01*
X119757074Y-53843163D01*
X119587556Y-53729895D01*
X119399198Y-53651874D01*
X119199239Y-53612100D01*
X118995361Y-53612100D01*
X118795402Y-53651874D01*
X118607044Y-53729895D01*
X118437526Y-53843163D01*
X118293363Y-53987326D01*
X118180095Y-54156844D01*
X118102074Y-54345202D01*
X118062300Y-54545161D01*
X118062300Y-54749039D01*
X118102074Y-54948998D01*
X118170172Y-55113400D01*
X116365174Y-55113400D01*
X116326156Y-55019201D01*
X116125338Y-54718656D01*
X115869744Y-54463062D01*
X115569199Y-54262244D01*
X115270213Y-54138400D01*
X115569199Y-54014556D01*
X115869744Y-53813738D01*
X116125338Y-53558144D01*
X116326156Y-53257599D01*
X116361944Y-53171200D01*
X118313680Y-53171200D01*
X118337463Y-53215694D01*
G37*
X118337463Y-53215694D02*
X118416815Y-53312385D01*
X118513506Y-53391737D01*
X118623820Y-53450702D01*
X118743518Y-53487012D01*
X118868000Y-53499272D01*
X120068000Y-53499272D01*
X120192482Y-53487012D01*
X120312180Y-53450702D01*
X120422494Y-53391737D01*
X120519185Y-53312385D01*
X120568000Y-53252904D01*
X120616815Y-53312385D01*
X120713506Y-53391737D01*
X120823820Y-53450702D01*
X120943518Y-53487012D01*
X121068000Y-53499272D01*
X122166026Y-53499272D01*
X121636081Y-54029218D01*
X121615376Y-54012226D01*
X121483347Y-53941654D01*
X121340086Y-53898197D01*
X121228433Y-53887200D01*
X121228422Y-53887200D01*
X121191100Y-53883524D01*
X121153778Y-53887200D01*
X119801111Y-53887200D01*
X119757074Y-53843163D01*
X119587556Y-53729895D01*
X119399198Y-53651874D01*
X119199239Y-53612100D01*
X118995361Y-53612100D01*
X118795402Y-53651874D01*
X118607044Y-53729895D01*
X118437526Y-53843163D01*
X118293363Y-53987326D01*
X118180095Y-54156844D01*
X118102074Y-54345202D01*
X118062300Y-54545161D01*
X118062300Y-54749039D01*
X118102074Y-54948998D01*
X118170172Y-55113400D01*
X116365174Y-55113400D01*
X116326156Y-55019201D01*
X116125338Y-54718656D01*
X115869744Y-54463062D01*
X115569199Y-54262244D01*
X115270213Y-54138400D01*
X115569199Y-54014556D01*
X115869744Y-53813738D01*
X116125338Y-53558144D01*
X116326156Y-53257599D01*
X116361944Y-53171200D01*
X118313680Y-53171200D01*
X118337463Y-53215694D01*
G36*
X124248527Y-54699258D02*
G01*
X124239187Y-54717868D01*
X124211180Y-54702898D01*
X124123169Y-54676200D01*
X124266479Y-54676200D01*
X124248527Y-54699258D01*
G37*
X124248527Y-54699258D02*
X124239187Y-54717868D01*
X124211180Y-54702898D01*
X124123169Y-54676200D01*
X124266479Y-54676200D01*
X124248527Y-54699258D01*
G36*
X150860398Y-54012705D02*
G01*
X150892653Y-54029946D01*
X151035914Y-54073403D01*
X151147567Y-54084400D01*
X151147576Y-54084400D01*
X151184899Y-54088076D01*
X151222222Y-54084400D01*
X151461000Y-54084400D01*
X151461000Y-54210402D01*
X151615748Y-54210402D01*
X151517650Y-54308500D01*
X150785902Y-54308500D01*
X150772210Y-54294808D01*
X150816000Y-54074660D01*
X150816000Y-53988974D01*
X150860398Y-54012705D01*
G37*
X150860398Y-54012705D02*
X150892653Y-54029946D01*
X151035914Y-54073403D01*
X151147567Y-54084400D01*
X151147576Y-54084400D01*
X151184899Y-54088076D01*
X151222222Y-54084400D01*
X151461000Y-54084400D01*
X151461000Y-54210402D01*
X151615748Y-54210402D01*
X151517650Y-54308500D01*
X150785902Y-54308500D01*
X150772210Y-54294808D01*
X150816000Y-54074660D01*
X150816000Y-53988974D01*
X150860398Y-54012705D01*
G36*
X139331000Y-53119850D02*
G01*
X139338000Y-53126850D01*
X139338000Y-53504300D01*
X139084000Y-53504300D01*
X139084000Y-52962750D01*
X139077000Y-52955750D01*
X139077000Y-52578300D01*
X139331000Y-52578300D01*
X139331000Y-53119850D01*
G37*
X139331000Y-53119850D02*
X139338000Y-53126850D01*
X139338000Y-53504300D01*
X139084000Y-53504300D01*
X139084000Y-52962750D01*
X139077000Y-52955750D01*
X139077000Y-52578300D01*
X139331000Y-52578300D01*
X139331000Y-53119850D01*
G36*
X124311748Y-52825398D02*
G01*
X124153000Y-52825398D01*
X124153000Y-52923800D01*
X123692000Y-52923800D01*
X123692000Y-52997800D01*
X123438000Y-52997800D01*
X123438000Y-52923800D01*
X123418000Y-52923800D01*
X123418000Y-52788872D01*
X123865000Y-52788872D01*
X123977420Y-52777800D01*
X124264150Y-52777800D01*
X124311748Y-52825398D01*
G37*
X124311748Y-52825398D02*
X124153000Y-52825398D01*
X124153000Y-52923800D01*
X123692000Y-52923800D01*
X123692000Y-52997800D01*
X123438000Y-52997800D01*
X123438000Y-52923800D01*
X123418000Y-52923800D01*
X123418000Y-52788872D01*
X123865000Y-52788872D01*
X123977420Y-52777800D01*
X124264150Y-52777800D01*
X124311748Y-52825398D01*
G36*
X145827928Y-48438400D02*
G01*
X145827928Y-49338400D01*
X145840188Y-49462882D01*
X145876498Y-49582580D01*
X145935463Y-49692894D01*
X145956001Y-49717919D01*
X145956001Y-49988256D01*
X145891150Y-50007928D01*
X145737614Y-50089995D01*
X145603038Y-50200438D01*
X145492595Y-50335014D01*
X145410528Y-50488550D01*
X145359992Y-50655146D01*
X145342928Y-50828400D01*
X145342928Y-51846300D01*
X144346893Y-51846300D01*
X144351326Y-51835598D01*
X144391100Y-51635639D01*
X144391100Y-51431761D01*
X144381143Y-51381702D01*
X144540956Y-51315505D01*
X144710474Y-51202237D01*
X144854637Y-51058074D01*
X144967905Y-50888556D01*
X145045926Y-50700198D01*
X145085700Y-50500239D01*
X145085700Y-50296361D01*
X145045926Y-50096402D01*
X144967905Y-49908044D01*
X144854637Y-49738526D01*
X144710474Y-49594363D01*
X144540956Y-49481095D01*
X144352598Y-49403074D01*
X144152639Y-49363300D01*
X144132401Y-49363300D01*
X145096302Y-48399400D01*
X145831769Y-48399400D01*
X145827928Y-48438400D01*
G37*
X145827928Y-48438400D02*
X145827928Y-49338400D01*
X145840188Y-49462882D01*
X145876498Y-49582580D01*
X145935463Y-49692894D01*
X145956001Y-49717919D01*
X145956001Y-49988256D01*
X145891150Y-50007928D01*
X145737614Y-50089995D01*
X145603038Y-50200438D01*
X145492595Y-50335014D01*
X145410528Y-50488550D01*
X145359992Y-50655146D01*
X145342928Y-50828400D01*
X145342928Y-51846300D01*
X144346893Y-51846300D01*
X144351326Y-51835598D01*
X144391100Y-51635639D01*
X144391100Y-51431761D01*
X144381143Y-51381702D01*
X144540956Y-51315505D01*
X144710474Y-51202237D01*
X144854637Y-51058074D01*
X144967905Y-50888556D01*
X145045926Y-50700198D01*
X145085700Y-50500239D01*
X145085700Y-50296361D01*
X145045926Y-50096402D01*
X144967905Y-49908044D01*
X144854637Y-49738526D01*
X144710474Y-49594363D01*
X144540956Y-49481095D01*
X144352598Y-49403074D01*
X144152639Y-49363300D01*
X144132401Y-49363300D01*
X145096302Y-48399400D01*
X145831769Y-48399400D01*
X145827928Y-48438400D01*
G36*
X126615863Y-51030174D02*
G01*
X126678089Y-51092400D01*
X125728444Y-51092400D01*
X125645585Y-51024400D01*
X126612005Y-51024400D01*
X126615863Y-51030174D01*
G37*
X126615863Y-51030174D02*
X126678089Y-51092400D01*
X125728444Y-51092400D01*
X125645585Y-51024400D01*
X126612005Y-51024400D01*
X126615863Y-51030174D01*
G36*
X139280000Y-49273400D02*
G01*
X139300000Y-49273400D01*
X139300000Y-49519400D01*
X139280000Y-49519400D01*
X139280000Y-50122650D01*
X139288000Y-50130650D01*
X139288000Y-50557900D01*
X139088800Y-50557900D01*
X139088800Y-49249400D01*
X139280000Y-49249400D01*
X139280000Y-49273400D01*
G37*
X139280000Y-49273400D02*
X139300000Y-49273400D01*
X139300000Y-49519400D01*
X139280000Y-49519400D01*
X139280000Y-50122650D01*
X139288000Y-50130650D01*
X139288000Y-50557900D01*
X139088800Y-50557900D01*
X139088800Y-49249400D01*
X139280000Y-49249400D01*
X139280000Y-49273400D01*
G36*
X149164750Y-48761400D02*
G01*
X149768000Y-48761400D01*
X149768000Y-48741400D01*
X150014000Y-48741400D01*
X150014000Y-48761400D01*
X150038000Y-48761400D01*
X150038000Y-49015400D01*
X150014000Y-49015400D01*
X150014000Y-49035400D01*
X149768000Y-49035400D01*
X149768000Y-49015400D01*
X149164750Y-49015400D01*
X149053500Y-49126650D01*
X148942250Y-49015400D01*
X148339000Y-49015400D01*
X148339000Y-49814650D01*
X148497750Y-49973400D01*
X148603397Y-49961504D01*
X148722318Y-49922726D01*
X148831389Y-49861493D01*
X148926419Y-49780158D01*
X149003755Y-49681847D01*
X149053500Y-49583963D01*
X149103245Y-49681847D01*
X149180581Y-49780158D01*
X149275611Y-49861493D01*
X149384682Y-49922726D01*
X149448083Y-49943400D01*
X149184740Y-49943400D01*
X148897842Y-50000468D01*
X148627589Y-50112410D01*
X148384368Y-50274925D01*
X148223352Y-50435941D01*
X148169405Y-50335014D01*
X148058962Y-50200438D01*
X147924386Y-50089995D01*
X147770850Y-50007928D01*
X147604254Y-49957392D01*
X147476000Y-49944760D01*
X147476000Y-49742554D01*
X147505581Y-49780158D01*
X147600611Y-49861493D01*
X147709682Y-49922726D01*
X147828603Y-49961504D01*
X147934250Y-49973400D01*
X148093000Y-49814650D01*
X148093000Y-49015400D01*
X148069000Y-49015400D01*
X148069000Y-48761400D01*
X148093000Y-48761400D01*
X148093000Y-48741400D01*
X148339000Y-48741400D01*
X148339000Y-48761400D01*
X148942250Y-48761400D01*
X149053500Y-48650150D01*
X149164750Y-48761400D01*
G37*
X149164750Y-48761400D02*
X149768000Y-48761400D01*
X149768000Y-48741400D01*
X150014000Y-48741400D01*
X150014000Y-48761400D01*
X150038000Y-48761400D01*
X150038000Y-49015400D01*
X150014000Y-49015400D01*
X150014000Y-49035400D01*
X149768000Y-49035400D01*
X149768000Y-49015400D01*
X149164750Y-49015400D01*
X149053500Y-49126650D01*
X148942250Y-49015400D01*
X148339000Y-49015400D01*
X148339000Y-49814650D01*
X148497750Y-49973400D01*
X148603397Y-49961504D01*
X148722318Y-49922726D01*
X148831389Y-49861493D01*
X148926419Y-49780158D01*
X149003755Y-49681847D01*
X149053500Y-49583963D01*
X149103245Y-49681847D01*
X149180581Y-49780158D01*
X149275611Y-49861493D01*
X149384682Y-49922726D01*
X149448083Y-49943400D01*
X149184740Y-49943400D01*
X148897842Y-50000468D01*
X148627589Y-50112410D01*
X148384368Y-50274925D01*
X148223352Y-50435941D01*
X148169405Y-50335014D01*
X148058962Y-50200438D01*
X147924386Y-50089995D01*
X147770850Y-50007928D01*
X147604254Y-49957392D01*
X147476000Y-49944760D01*
X147476000Y-49742554D01*
X147505581Y-49780158D01*
X147600611Y-49861493D01*
X147709682Y-49922726D01*
X147828603Y-49961504D01*
X147934250Y-49973400D01*
X148093000Y-49814650D01*
X148093000Y-49015400D01*
X148069000Y-49015400D01*
X148069000Y-48761400D01*
X148093000Y-48761400D01*
X148093000Y-48741400D01*
X148339000Y-48741400D01*
X148339000Y-48761400D01*
X148942250Y-48761400D01*
X149053500Y-48650150D01*
X149164750Y-48761400D01*
G36*
X125161000Y-49320200D02*
G01*
X125185000Y-49320200D01*
X125185000Y-49504400D01*
X124891000Y-49504400D01*
X124891000Y-49320200D01*
X124915000Y-49320200D01*
X124915000Y-49300200D01*
X125161000Y-49300200D01*
X125161000Y-49320200D01*
G37*
X125161000Y-49320200D02*
X125185000Y-49320200D01*
X125185000Y-49504400D01*
X124891000Y-49504400D01*
X124891000Y-49320200D01*
X124915000Y-49320200D01*
X124915000Y-49300200D01*
X125161000Y-49300200D01*
X125161000Y-49320200D01*
G36*
X124311748Y-49320198D02*
G01*
X124153000Y-49320198D01*
X124153000Y-49418600D01*
X124041801Y-49418600D01*
X123994804Y-49371603D01*
X123971001Y-49342599D01*
X123890069Y-49276180D01*
X123926420Y-49272600D01*
X124264150Y-49272600D01*
X124311748Y-49320198D01*
G37*
X124311748Y-49320198D02*
X124153000Y-49320198D01*
X124153000Y-49418600D01*
X124041801Y-49418600D01*
X123994804Y-49371603D01*
X123971001Y-49342599D01*
X123890069Y-49276180D01*
X123926420Y-49272600D01*
X124264150Y-49272600D01*
X124311748Y-49320198D01*
M02*
